<svg width="72" height="68" viewBox="0 0 72 68" fill="none" xmlns="http://www.w3.org/2000/svg">
<path d="M70.0562 60.0906H66.7911V57.5154H70.0561C70.63 57.5154 71.0953 56.9764 71.0953 56.3116V51.3259C71.0953 50.6611 70.63 50.1221 70.0561 50.1221H58.2977V26.265C58.2977 25.6002 57.8324 25.0612 57.2585 25.0612H47.48V14.7614C47.48 14.0966 47.0147 13.5577 46.4408 13.5577C45.8669 13.5577 45.4016 14.0966 45.4016 14.7614V25.0609H25.8447V2.40754H32.3447V8.12064C32.3447 9.03968 33.2227 9.56468 33.8533 9.19456L35.657 8.13701L37.3783 9.18606C38.232 9.4947 38.7397 9.13951 38.9014 8.12064V2.40754H45.4014V9.51621C45.4014 10.181 45.8667 10.72 46.4407 10.72C47.0146 10.72 47.4799 10.181 47.4799 9.51621V1.20377C47.4799 0.538968 47.0146 0 46.4407 0H24.8055C24.2316 0 23.7663 0.538968 23.7663 1.20377V25.0609H13.9878C13.4139 25.0609 12.9486 25.5999 12.9486 26.2647V36.1725C12.9486 36.8373 13.4139 37.3763 13.9878 37.3763C14.5618 37.3763 15.0271 36.8373 15.0271 36.1725V27.4684H21.5272V33.1815C21.6845 34.1909 22.1873 34.5489 23.0359 34.2555L24.8396 33.1978L26.561 34.2468C27.1922 34.6315 28.084 34.1126 28.084 33.1815V27.4684H34.5841V50.1218H15.0271V41.4193C15.0271 40.7545 14.5618 40.2156 13.9878 40.2156C13.4139 40.2156 12.9486 40.7545 12.9486 41.4193V50.1221H1.19038C0.616452 50.1221 0.151156 50.6611 0.151156 51.3259V56.3116C0.151156 56.9764 0.616452 57.5154 1.19038 57.5154H4.45536V60.0906H1.19011C0.616175 60.0906 0.150879 60.6296 0.150879 61.2944V66.2796C0.150879 66.9444 0.616175 67.4834 1.19011 67.4834H32.9392C33.5131 67.4834 33.9784 66.9444 33.9784 66.2796C33.9784 65.6148 33.5131 65.0759 32.9392 65.0759H2.22933V62.4982H69.017V65.0759H37.4688C36.8949 65.0759 36.4296 65.6148 36.4296 66.2796C36.4296 66.9444 36.8949 67.4834 37.4688 67.4834H70.0562C70.6301 67.4834 71.0954 66.9444 71.0954 66.2796V61.2944C71.0954 60.6296 70.6301 60.0906 70.0562 60.0906ZM36.8231 6.12719L36.1501 5.71711C35.8525 5.53574 35.4971 5.53253 35.1969 5.70844L34.4233 6.16202V2.40802H36.8231V6.12719ZM26.0055 31.1881C25.2259 30.6117 24.3739 30.6238 23.6057 31.2229V27.4689H26.0055V31.1881ZM64.7126 60.0906H58.1828V57.5154H64.7126V60.0906ZM56.1044 57.5154V60.0906H15.1419V57.5154H56.1044ZM56.2192 50.1221H36.6624V27.4688H43.1624V33.1815C43.3197 34.1909 43.8225 34.549 44.6711 34.2555L46.4748 33.1978L48.1961 34.2468C48.8274 34.6315 49.7192 34.1128 49.7192 33.1815V27.4688H56.2192V50.1221ZM47.6406 31.1881C46.8609 30.6117 46.009 30.6238 45.2408 31.2229V27.4688H47.6406V31.1881ZM2.22961 52.5297H69.0167V55.1078H2.22961V52.5297ZM6.53367 57.5154H13.0635V60.0906H6.53367V57.5154Z" fill="white"/>
<path d="M31.2617 47.5441C31.8357 47.5441 32.301 47.0052 32.301 46.3404C32.301 45.6756 31.8357 45.1366 31.2617 45.1366H27.0448C26.4709 45.1366 26.0056 45.6756 26.0056 46.3404C26.0056 47.0052 26.4709 47.5441 27.0448 47.5441H31.2617Z" fill="white"/>
<path d="M48.6799 45.1366C48.1059 45.1366 47.6406 45.6756 47.6406 46.3404C47.6406 47.0052 48.1059 47.5441 48.6799 47.5441H52.8969C53.4708 47.5441 53.9361 47.0052 53.9361 46.3404C53.9361 45.6756 53.4708 45.1366 52.8969 45.1366H48.6799Z" fill="white"/>
<path d="M37.8623 20.0757C37.2884 20.0757 36.8231 20.6147 36.8231 21.2795C36.8231 21.9443 37.2884 22.4832 37.8623 22.4832H42.0794C42.6533 22.4832 43.1186 21.9443 43.1186 21.2795C43.1186 20.6147 42.6533 20.0757 42.0794 20.0757H37.8623Z" fill="white"/>
</svg>
