<svg width="59" height="70" viewBox="0 0 59 70" fill="none" xmlns="http://www.w3.org/2000/svg">
<path d="M11.0648 59.8483C11.0827 59.8483 11.1009 59.8479 11.1189 59.8469C12.1475 59.7934 13.1489 59.5496 14.0798 59.1491C15.0961 60.0951 16.6716 60.0671 18.2364 59.0316C18.263 59.0139 18.2883 58.9975 18.3124 58.9823C18.4743 59.1874 18.6833 59.35 18.9304 59.4594C19.8144 59.8505 20.8116 59.397 21.0961 59.2485C21.5302 59.0223 21.9522 58.7691 22.3579 58.4919C22.5745 59.0425 23.0088 59.4408 23.5643 59.5475C24.0924 59.6494 24.5439 59.4439 24.7365 59.3561C25.4018 59.0537 26.0263 58.6708 26.598 58.2151C28.863 59.6997 31.8125 59.4529 34.4214 59.0958C34.9825 59.019 35.3752 58.502 35.2983 57.941C35.2216 57.3799 34.7052 56.9869 34.1435 57.064C31.8079 57.3834 29.1755 57.6173 27.4956 56.34C26.9212 55.9029 26.1062 55.9335 25.5579 56.4127C25.1527 56.7668 24.7088 57.0709 24.2344 57.3197C24.1501 56.8453 23.8514 56.4377 23.4078 56.2142C22.8707 55.9436 22.2433 56.0075 21.77 56.3806C21.2639 56.7798 20.7182 57.1329 20.1481 57.43C20.0519 57.4802 19.959 57.5143 19.8818 57.5354C19.6827 57.1042 19.349 56.9156 19.1466 56.8375C18.4044 56.5509 17.6258 56.9764 17.1046 57.3213C17.011 57.3833 16.7476 57.549 16.4458 57.6634C17.6317 56.6352 18.5484 55.3031 19.0311 53.7937C19.2767 53.0261 19.0518 52.1904 18.4584 51.665C17.8127 51.0933 16.7029 50.8857 15.5247 52.0167C14.2864 53.2053 13.4626 54.7853 13.2048 56.4658C13.1616 56.7471 13.154 57.0255 13.1805 57.2954C12.4914 57.5837 11.7575 57.7601 11.0121 57.7989C10.4465 57.8283 10.0121 58.3108 10.0414 58.8762C10.0702 59.4237 10.5228 59.8483 11.0648 59.8483ZM16.9451 53.4961C16.9544 53.4872 16.9635 53.4786 16.9724 53.4704C16.6517 54.3127 16.1398 55.0816 15.4976 55.7303C15.7979 54.8918 16.2939 54.1213 16.9451 53.4961Z" fill="white"/>
<path d="M18.1719 5.66479H18.3037C18.87 5.66479 19.3291 5.20569 19.3291 4.6394C19.3291 4.07311 18.87 3.61401 18.3037 3.61401H18.1719C17.6056 3.61401 17.1465 4.07311 17.1465 4.6394C17.1465 5.20569 17.6054 5.66479 18.1719 5.66479Z" fill="white"/>
<path d="M35.2156 5.66479H35.3474C35.9137 5.66479 36.3728 5.20569 36.3728 4.6394C36.3728 4.07311 35.9137 3.61401 35.3474 3.61401H35.2156C34.6493 3.61401 34.1902 4.07311 34.1902 4.6394C34.1902 5.20569 34.6493 5.66479 35.2156 5.66479Z" fill="white"/>
<path d="M53.5179 13.5887C53.5181 13.5793 53.5192 13.57 53.5192 13.5604V3.75977C53.5192 1.68656 51.8327 0 49.7595 0H3.75977C1.68656 0 0 1.68656 0 3.75977V51.4746C0 52.0409 0.459102 52.5 1.02539 52.5C1.59168 52.5 2.05078 52.0409 2.05078 51.4746V3.75977C2.05078 2.81736 2.81736 2.05078 3.75977 2.05078H12.4042V4.13232H6.74898C5.47586 4.13232 4.44008 5.16811 4.44008 6.44123V63.4642C4.44008 64.7373 5.47586 65.7731 6.74898 65.7731H46.7703C48.0434 65.7731 49.0792 64.7373 49.0792 63.4642V53.5254C49.0792 52.9591 48.6201 52.5 48.0538 52.5C47.4875 52.5 47.0284 52.9591 47.0284 53.5254V63.4642C47.0284 63.6065 46.9126 63.7223 46.7703 63.7223H6.74898C6.60666 63.7223 6.49086 63.6065 6.49086 63.4642V6.44123C6.49086 6.29891 6.60666 6.18311 6.74898 6.18311H12.4042V6.88611C12.4042 8.20531 13.4776 9.27869 14.7968 9.27869H15.5731V10.9061C15.5731 12.6574 16.9978 14.082 18.7491 14.082H34.7702C36.5214 14.082 37.9462 12.6573 37.9462 10.9061V9.27869H38.7224C40.0416 9.27869 41.115 8.20531 41.115 6.88611V6.18311H46.7701C46.9124 6.18311 47.0282 6.29891 47.0282 6.44123V12.364C43.7037 12.9054 40.9417 15.1441 39.6661 18.1601H10.2028C9.63648 18.1601 9.17738 18.6192 9.17738 19.1855C9.17738 19.7518 9.63648 20.2109 10.2028 20.2109H39.0603C38.9609 20.7661 38.9062 21.3365 38.9062 21.9198C38.9062 24.157 39.6709 26.2176 40.9496 27.8589H20.6834C20.1171 27.8589 19.658 28.318 19.658 28.8843C19.658 29.4506 20.1171 29.9097 20.6834 29.9097H43.1296C44.2768 30.6962 45.6001 31.2431 47.0282 31.4757V48.877C47.0282 49.4432 47.4873 49.9023 48.0536 49.9023C48.6199 49.9023 49.079 49.4432 49.079 48.877V31.5909C49.9069 31.5495 50.7076 31.4039 51.4685 31.1665V66.2402C51.4685 67.1826 50.7019 67.9492 49.7595 67.9492H3.75977C2.81736 67.9492 2.05078 67.1826 2.05078 66.2402V56.123C2.05078 55.5568 1.59168 55.0977 1.02539 55.0977C0.459102 55.0977 0 55.5568 0 56.123V66.2402C0 68.3134 1.68656 70 3.75977 70H49.7595C51.8327 70 53.5192 68.3134 53.5192 66.2402V30.2501C56.3626 28.5611 58.2732 25.46 58.2732 21.9198C58.2734 18.379 56.3619 15.2775 53.5179 13.5887ZM39.0644 6.88611C39.0644 7.07451 38.911 7.22791 38.7226 7.22791H24.4197C23.8535 7.22791 23.3944 7.68701 23.3944 8.2533C23.3944 8.81959 23.8535 9.27869 24.4197 9.27869H35.8955V10.9061C35.8955 11.5265 35.3907 12.0312 34.7703 12.0312H18.7491C18.1286 12.0312 17.6239 11.5265 17.6239 10.9061V9.27869H19.7713C20.3376 9.27869 20.7967 8.81959 20.7967 8.2533C20.7967 7.68701 20.3376 7.22791 19.7713 7.22791H14.7968C14.6084 7.22791 14.455 7.07451 14.455 6.88611V2.05078H39.0644V6.88611ZM46.7703 4.13232H41.1152V2.05078H49.7595C50.7019 2.05078 51.4685 2.81736 51.4685 3.75977V12.6731C50.7078 12.4358 49.9069 12.2901 49.079 12.2488V6.44123C49.0792 5.16811 48.0434 4.13232 46.7703 4.13232ZM43.0939 29.8864C43.0957 29.8877 43.0976 29.8888 43.0994 29.89C43.0918 29.8889 43.088 29.8877 43.0939 29.8864ZM48.5898 29.5526C44.3811 29.5526 40.9571 26.1286 40.9571 21.9198C40.9571 17.7111 44.3811 14.2871 48.5898 14.2871C52.7986 14.2871 56.2226 17.7111 56.2226 21.9198C56.2226 26.1286 52.7986 29.5526 48.5898 29.5526Z" fill="white"/>
<path d="M51.4449 18.4605L46.7011 23.2042L45.8312 22.3343C45.4307 21.9338 44.7815 21.9338 44.3811 22.3343C43.9807 22.7347 43.9807 23.384 44.3811 23.7843L45.9762 25.3794C46.1764 25.5796 46.4389 25.6798 46.7013 25.6798C46.9636 25.6798 47.2261 25.5797 47.4263 25.3794L52.895 19.9107C53.2955 19.5102 53.2955 18.8609 52.895 18.4606C52.4946 18.06 51.8453 18.06 51.4449 18.4605Z" fill="white"/>
<path d="M11.4985 31.3913H15.4634C16.4058 31.3913 17.1724 30.6247 17.1724 29.6823V25.7175C17.1724 24.7751 16.4058 24.0085 15.4634 24.0085H11.4985C10.5561 24.0085 9.78955 24.7751 9.78955 25.7175V29.6823C9.78955 30.6247 10.5561 31.3913 11.4985 31.3913ZM11.8403 26.0593H15.1216V29.3405H11.8403V26.0593Z" fill="white"/>
<path d="M21.1936 33.9314C21.7599 33.9314 22.219 33.4723 22.219 32.906C22.219 32.3397 21.7599 31.8806 21.1936 31.8806H21.0549C20.4886 31.8806 20.0295 32.3397 20.0295 32.906C20.0295 33.4723 20.4886 33.9314 21.0549 33.9314H21.1936Z" fill="white"/>
<path d="M24.4393 33.9314C25.0056 33.9314 25.4647 33.4723 25.4647 32.906C25.4647 32.3397 25.0056 31.8806 24.4393 31.8806H24.3005C23.7342 31.8806 23.2751 32.3397 23.2751 32.906C23.2751 33.4723 23.7342 33.9314 24.3005 33.9314H24.4393Z" fill="white"/>
<path d="M27.5464 33.9314H27.685C28.2513 33.9314 28.7104 33.4723 28.7104 32.906C28.7104 32.3397 28.2513 31.8806 27.685 31.8806H27.5464C26.9801 31.8806 26.521 32.3397 26.521 32.906C26.521 33.4723 26.9801 33.9314 27.5464 33.9314Z" fill="white"/>
<path d="M30.9308 33.9314C31.4971 33.9314 31.9562 33.4723 31.9562 32.906C31.9562 32.3397 31.4971 31.8806 30.9308 31.8806H30.792C30.2257 31.8806 29.7666 32.3397 29.7666 32.906C29.7666 33.4723 30.2257 33.9314 30.792 33.9314H30.9308Z" fill="white"/>
<path d="M20.6833 26.0593H26.7023C27.2685 26.0593 27.7276 25.6002 27.7276 25.0339C27.7276 24.4676 27.2685 24.0085 26.7023 24.0085H20.6833C20.1171 24.0085 19.658 24.4676 19.658 25.0339C19.658 25.6002 20.1171 26.0593 20.6833 26.0593Z" fill="white"/>
<path d="M9.78955 43.3831C9.78955 44.3255 10.5561 45.092 11.4985 45.092H15.4634C16.4058 45.092 17.1724 44.3255 17.1724 43.3831V39.4182C17.1724 38.4758 16.4058 37.7092 15.4634 37.7092H11.4985C10.5561 37.7092 9.78955 38.4758 9.78955 39.4182V43.3831ZM11.8403 39.76H15.1216V43.0413H11.8403V39.76Z" fill="white"/>
<path d="M21.0549 47.6322H21.1936C21.7599 47.6322 22.219 47.1731 22.219 46.6068C22.219 46.0405 21.7599 45.5814 21.1936 45.5814H21.0549C20.4886 45.5814 20.0295 46.0405 20.0295 46.6068C20.0295 47.1731 20.4886 47.6322 21.0549 47.6322Z" fill="white"/>
<path d="M24.3008 47.6322H24.4396C25.0058 47.6322 25.4649 47.1731 25.4649 46.6068C25.4649 46.0405 25.0058 45.5814 24.4396 45.5814H24.3008C23.7345 45.5814 23.2754 46.0405 23.2754 46.6068C23.2754 47.1731 23.7345 47.6322 24.3008 47.6322Z" fill="white"/>
<path d="M27.685 47.6322C28.2513 47.6322 28.7104 47.1731 28.7104 46.6068C28.7104 46.0405 28.2513 45.5814 27.685 45.5814H27.5464C26.9801 45.5814 26.521 46.0405 26.521 46.6068C26.521 47.1731 26.9801 47.6322 27.5464 47.6322H27.685Z" fill="white"/>
<path d="M30.9308 47.6322C31.4971 47.6322 31.9562 47.1731 31.9562 46.6068C31.9562 46.0405 31.4971 45.5814 30.9308 45.5814H30.792C30.2257 45.5814 29.7666 46.0405 29.7666 46.6068C29.7666 47.1731 30.2257 47.6322 30.792 47.6322H30.9308Z" fill="white"/>
<path d="M44.0398 42.585C44.0398 42.0187 43.5807 41.5596 43.0144 41.5596H20.6833C20.1171 41.5596 19.658 42.0187 19.658 42.585C19.658 43.1513 20.1171 43.6104 20.6833 43.6104H43.0144C43.5807 43.6104 44.0398 43.1514 44.0398 42.585Z" fill="white"/>
<path d="M19.658 38.7346C19.658 39.3009 20.1171 39.76 20.6833 39.76H26.7023C27.2685 39.76 27.7276 39.3009 27.7276 38.7346C27.7276 38.1683 27.2685 37.7092 26.7023 37.7092H20.6833C20.1171 37.7092 19.658 38.1683 19.658 38.7346Z" fill="white"/>
</svg>
