<svg width="48" height="60" viewBox="0 0 48 60" fill="none" xmlns="http://www.w3.org/2000/svg">
<path d="M1.49999 12.18C1.61508 12.1802 1.72908 12.1577 1.83545 12.1137C1.94183 12.0698 2.03847 12.0052 2.11986 11.9239C2.20124 11.8425 2.26576 11.7458 2.30971 11.6395C2.35366 11.5331 2.37619 11.4191 2.37599 11.304V6.93C2.37757 5.55889 2.92243 4.24428 3.89125 3.27406C4.86007 2.30384 6.17389 1.75707 7.54499 1.7535H29.9085C31.2809 1.75509 32.5966 2.30098 33.5671 3.27142C34.5375 4.24185 35.0834 5.55759 35.085 6.93V12.6645C35.0944 12.8908 35.1908 13.1046 35.3542 13.2614C35.5176 13.4182 35.7353 13.5057 35.9617 13.5057C36.1882 13.5057 36.4059 13.4182 36.5693 13.2614C36.7327 13.1046 36.8291 12.8908 36.8385 12.6645V6.93C36.8365 5.09266 36.1057 3.33114 34.8065 2.03194C33.5074 0.732746 31.7458 0.00198524 29.9085 0L7.54499 0C5.70765 0.00198524 3.94613 0.732746 2.64693 2.03194C1.34774 3.33114 0.616975 5.09266 0.61499 6.93V11.304C0.614984 11.4198 0.637938 11.5345 0.682522 11.6413C0.727107 11.7482 0.792439 11.8452 0.874739 11.9266C0.957038 12.0081 1.05467 12.0724 1.162 12.1159C1.26932 12.1594 1.3842 12.1812 1.49999 12.18Z" fill="#D41235"/>
<path d="M35.961 41.4002C35.8459 41.4 35.7319 41.4225 35.6255 41.4665C35.5192 41.5104 35.4225 41.575 35.3411 41.6563C35.2598 41.7377 35.1952 41.8344 35.1513 41.9408C35.1073 42.0471 35.0848 42.1611 35.085 42.2762V53.0702C35.0834 54.4426 34.5375 55.7584 33.5671 56.7288C32.5967 57.6992 31.2809 58.2451 29.9085 58.2467H7.54501C6.1726 58.2451 4.85686 57.6992 3.88642 56.7288C2.91599 55.7584 2.3701 54.4426 2.36851 53.0702V15.0407C2.3734 14.9225 2.35434 14.8046 2.31248 14.6939C2.27063 14.5833 2.20683 14.4823 2.12494 14.3969C2.04304 14.3116 1.94474 14.2437 1.83592 14.1973C1.72711 14.1509 1.61005 14.127 1.49176 14.127C1.37347 14.127 1.2564 14.1509 1.14759 14.1973C1.03878 14.2437 0.940473 14.3116 0.858578 14.3969C0.776682 14.4823 0.712889 14.5833 0.671032 14.6939C0.629175 14.8046 0.610118 14.9225 0.615008 15.0407V53.0702C0.616993 54.9075 1.34775 56.6691 2.64695 57.9683C3.94615 59.2675 5.70767 59.9982 7.54501 60.0002H29.9085C31.7459 59.9982 33.5074 59.2675 34.8066 57.9683C36.1058 56.6691 36.8365 54.9075 36.8385 53.0702V42.2822C36.8385 42.1671 36.8158 42.053 36.7717 41.9466C36.7276 41.8403 36.6629 41.7436 36.5814 41.6623C36.4999 41.5809 36.4032 41.5164 36.2967 41.4725C36.1903 41.4285 36.0762 41.406 35.961 41.4062V41.4002Z" fill="#D41235"/>
<path d="M32.4541 13.9663C32.6868 13.9663 32.91 13.8739 33.0746 13.7093C33.2391 13.5448 33.3316 13.3216 33.3316 13.0888V6.92984C33.3304 6.02237 32.9694 5.1524 32.3277 4.51072C31.686 3.86905 30.816 3.50803 29.9086 3.50684H28.4611C28.1307 3.50739 27.8083 3.60802 27.5362 3.79545C27.2642 3.98289 27.0553 4.24834 26.9371 4.55684L26.5921 5.47484C26.4702 5.80331 26.2512 6.08689 25.9643 6.28786C25.6773 6.48882 25.3359 6.59764 24.9856 6.59984H12.4681C12.1191 6.59856 11.7788 6.49151 11.492 6.2928C11.2052 6.09408 10.9854 5.81307 10.8616 5.48684L10.5166 4.56884C10.3984 4.26034 10.1895 3.99489 9.91743 3.80745C9.64538 3.62002 9.32294 3.51939 8.99257 3.51884H7.54507C6.63967 3.52001 5.77152 3.87938 5.13018 4.51847C4.48884 5.15756 4.12643 6.02445 4.12207 6.92984V53.0698C4.12286 53.9774 4.48376 54.8476 5.12552 55.4894C5.76729 56.1312 6.63748 56.492 7.54507 56.4928H23.3131C23.5393 56.4835 23.7532 56.387 23.91 56.2236C24.0668 56.0602 24.1543 55.8425 24.1543 55.6161C24.1543 55.3896 24.0668 55.172 23.91 55.0086C23.7532 54.8452 23.5393 54.7487 23.3131 54.7393H7.54507C7.10241 54.7389 6.678 54.5629 6.36499 54.2499C6.05199 53.9369 5.87597 53.5125 5.87557 53.0698V6.92984C5.87597 6.48718 6.05199 6.06277 6.36499 5.74976C6.678 5.43675 7.10241 5.26073 7.54507 5.26034H8.90557L9.22057 6.09734C9.47049 6.75702 9.91476 7.32531 10.4946 7.72707C11.0745 8.12882 11.7626 8.34511 12.4681 8.34734H24.9856C25.691 8.34511 26.3792 8.12882 26.959 7.72707C27.5389 7.32531 27.9831 6.75702 28.2331 6.09734L28.5481 5.26034H29.9086C30.3512 5.26073 30.7756 5.43675 31.0886 5.74976C31.4017 6.06277 31.5777 6.48718 31.5781 6.92984V13.0888C31.5779 13.204 31.6004 13.3181 31.6443 13.4245C31.6883 13.531 31.7528 13.6277 31.8341 13.7092C31.9155 13.7907 32.0121 13.8554 32.1185 13.8995C32.2249 13.9436 32.3389 13.9663 32.4541 13.9663Z" fill="#D41235"/>
<path d="M29.9085 56.493C30.8161 56.4922 31.6863 56.1313 32.3281 55.4895C32.9698 54.8478 33.3307 53.9776 33.3315 53.07V42.3C33.3221 42.0737 33.2257 41.8598 33.0623 41.7031C32.8989 41.5463 32.6812 41.4587 32.4548 41.4587C32.2283 41.4587 32.0106 41.5463 31.8472 41.7031C31.6838 41.8598 31.5874 42.0737 31.578 42.3V53.07C31.5776 53.5126 31.4016 53.9371 31.0886 54.2501C30.7756 54.5631 30.3512 54.7391 29.9085 54.7395H27.0495C26.9313 54.7346 26.8134 54.7536 26.7027 54.7955C26.5921 54.8374 26.4911 54.9012 26.4057 54.9831C26.3204 55.0649 26.2524 55.1633 26.2061 55.2721C26.1597 55.3809 26.1357 55.4979 26.1357 55.6162C26.1357 55.7345 26.1597 55.8516 26.2061 55.9604C26.2524 56.0692 26.3204 56.1675 26.4057 56.2494C26.4911 56.3313 26.5921 56.3951 26.7027 56.437C26.8134 56.4788 26.9313 56.4979 27.0495 56.493H29.9085Z" fill="#D41235"/>
<path d="M23.6132 4.92759C23.7314 4.93248 23.8494 4.91342 23.96 4.87157C24.0706 4.82971 24.1717 4.76592 24.257 4.68402C24.3424 4.60212 24.4103 4.50382 24.4567 4.39501C24.5031 4.2862 24.527 4.16913 24.527 4.05084C24.527 3.93255 24.5031 3.81548 24.4567 3.70667C24.4103 3.59786 24.3424 3.49956 24.257 3.41766C24.1717 3.33576 24.0706 3.27197 23.96 3.23011C23.8494 3.18826 23.7314 3.1692 23.6132 3.17409H14.3417C14.1155 3.18345 13.9016 3.27991 13.7448 3.44331C13.588 3.60671 13.5005 3.82439 13.5005 4.05084C13.5005 4.27729 13.588 4.49497 13.7448 4.65837C13.9016 4.82177 14.1155 4.91823 14.3417 4.92759H23.6132Z" fill="#D41235"/>
<path d="M44.3911 24.0946C44.3933 22.7629 44.0922 21.4481 43.5106 20.2501L44.3776 19.3831C44.9191 18.8422 45.2235 18.1085 45.2239 17.3432C45.2243 16.5779 44.9207 15.8438 44.3799 15.3023C43.839 14.7609 43.1053 14.4565 42.34 14.4561C41.5747 14.4556 40.8406 14.7592 40.2991 15.3001L39.4246 16.1746C38.1628 15.5668 36.775 15.2667 35.3748 15.299C33.9746 15.3314 32.602 15.6952 31.3696 16.3606C31.1656 16.472 31.0141 16.6599 30.9485 16.8829C30.883 17.106 30.9087 17.346 31.0201 17.5501C31.1315 17.7542 31.3194 17.9056 31.5425 17.9712C31.7656 18.0367 32.0056 18.011 32.2096 17.8996C33.5478 17.1758 35.0833 16.9017 36.5892 17.1178C38.0951 17.3339 39.4915 18.0287 40.5721 19.0996C41.2275 19.7543 41.7474 20.5318 42.1021 21.3876C42.4569 22.2434 42.6394 23.1607 42.6394 24.0871C42.6394 25.0135 42.4569 25.9308 42.1021 26.7866C41.7474 27.6424 41.2275 28.4198 40.5721 29.0746L36.8221 32.8246L32.7001 28.7176C32.5356 28.5533 32.3126 28.4611 32.0801 28.4612C31.8476 28.4613 31.6247 28.5538 31.4604 28.7183C31.2961 28.8828 31.2039 29.1059 31.204 29.3384C31.2041 29.5709 31.2966 29.7938 31.4611 29.9581L35.8111 34.3081L34.5751 37.9576C34.5526 38.0241 34.5134 38.0839 34.4613 38.1311C34.4093 38.1783 34.3461 38.2116 34.2777 38.2276C34.2092 38.2437 34.1379 38.242 34.0702 38.2229C34.0026 38.2037 33.941 38.1677 33.8911 38.1181L21.5566 25.7836C21.5071 25.7337 21.471 25.6721 21.4518 25.6045C21.4327 25.5369 21.4311 25.4655 21.4471 25.3971C21.4632 25.3286 21.4964 25.2654 21.5436 25.2134C21.5909 25.1613 21.6506 25.1222 21.7171 25.0996L25.8826 23.6896C26.0104 23.646 26.1263 23.5736 26.2216 23.4781L29.5351 20.1661C29.6203 20.0855 29.6885 19.9886 29.7356 19.8812C29.7827 19.7738 29.8078 19.6581 29.8094 19.5408C29.811 19.4236 29.7891 19.3072 29.745 19.1985C29.7009 19.0899 29.6354 18.9912 29.5525 18.9082C29.4696 18.8253 29.3709 18.7598 29.2622 18.7157C29.1536 18.6716 29.0372 18.6497 28.9199 18.6513C28.8026 18.6529 28.6869 18.678 28.5795 18.7251C28.4721 18.7722 28.3752 18.8404 28.2946 18.9256L25.1266 22.0936L21.1546 23.4436C20.8054 23.5616 20.4921 23.7667 20.2443 24.0396C19.9965 24.3126 19.8224 24.6442 19.7386 25.0032C19.6548 25.3622 19.664 25.7366 19.7653 26.091C19.8666 26.4454 20.0567 26.7682 20.3176 27.0286L23.8216 30.5326C23.2403 31.2611 22.948 32.1783 23.0007 33.1089C23.0533 34.0394 23.4472 34.9178 24.107 35.5761C24.7667 36.2344 25.6461 36.6263 26.5767 36.6769C27.5073 36.7274 28.4239 36.433 29.1511 35.8501L32.6551 39.3526C32.9156 39.6135 33.2383 39.8036 33.5927 39.9049C33.9471 40.0062 34.3216 40.0154 34.6805 39.9316C35.0395 39.8478 35.3711 39.6738 35.6441 39.426C35.917 39.1782 36.1222 38.8648 36.2401 38.5156L37.5901 34.5436L41.8171 30.3166C42.6373 29.5008 43.2876 28.5304 43.7302 27.4616C44.1728 26.3929 44.399 25.2469 44.3956 24.0901L44.3911 24.0946ZM41.5411 16.5421C41.753 16.33 42.0404 16.2108 42.3401 16.2107C42.6398 16.2106 42.9273 16.3295 43.1394 16.5413C43.3514 16.7532 43.4706 17.0406 43.4708 17.3403C43.4709 17.64 43.352 17.9275 43.1401 18.1396L42.5611 18.7186C42.3291 18.4192 42.0786 18.1347 41.8111 17.8666C41.5433 17.5983 41.2582 17.3477 40.9576 17.1166L41.5411 16.5421ZM25.3351 34.3501C25.0038 34.0176 24.7973 33.581 24.7506 33.114C24.7039 32.647 24.8197 32.1781 25.0786 31.7866L27.8986 34.6066C27.5072 34.8658 27.0383 34.9818 26.5712 34.9351C26.1041 34.8883 25.6674 34.6817 25.3351 34.3501Z" fill="#D41235"/>
<path d="M28.7387 25.9921C28.5743 26.1567 28.4819 26.3798 28.4819 26.6124C28.4819 26.845 28.5743 27.0681 28.7387 27.2326L29.1887 27.6826C29.3547 27.8397 29.5754 27.9258 29.8039 27.9227C30.0325 27.9195 30.2507 27.8273 30.4123 27.6658C30.5739 27.5042 30.6661 27.2859 30.6693 27.0574C30.6724 26.8289 30.5863 26.6081 30.4292 26.4421L29.9792 25.9921C29.8147 25.8277 29.5916 25.7354 29.359 25.7354C29.1264 25.7354 28.9033 25.8277 28.7387 25.9921Z" fill="#D41235"/>
<path d="M25.3906 12.3224C24.4805 12.2397 23.5631 12.3408 22.6929 12.6199C21.8227 12.8989 21.0176 13.3502 20.3254 13.9468C19.6332 14.5434 19.0681 15.2732 18.6637 16.0927C18.2593 16.9122 18.024 17.8046 17.9716 18.717C17.9641 18.8324 17.9794 18.9481 18.0168 19.0576C18.0542 19.167 18.1128 19.268 18.1893 19.3547C18.2659 19.4414 18.3588 19.5121 18.4627 19.5628C18.5667 19.6135 18.6796 19.6431 18.7951 19.65H18.8476C19.071 19.6496 19.2858 19.564 19.4483 19.4107C19.6108 19.2574 19.7087 19.0479 19.7221 18.825C19.7603 18.1468 19.9348 17.4833 20.235 16.874C20.5352 16.2648 20.9551 15.7222 21.4696 15.2787C21.984 14.8352 22.5825 14.4999 23.2294 14.2928C23.8762 14.0856 24.5582 14.0108 25.2346 14.0729C25.4661 14.0928 25.6961 14.0199 25.8739 13.8703C26.0516 13.7206 26.1627 13.5065 26.1826 13.2749C26.2025 13.0434 26.1296 12.8135 25.9799 12.6357C25.8303 12.4579 25.6161 12.3468 25.3846 12.3269L25.3906 12.3224Z" fill="#D41235"/>
<path d="M25.3243 15.8431C24.8446 15.7635 24.3533 15.7903 23.8851 15.9215C23.4169 16.0528 22.9833 16.2854 22.615 16.6028C22.2466 16.9202 21.9525 17.3147 21.7535 17.7583C21.5545 18.202 21.4554 18.684 21.4633 19.1701C21.4665 19.4004 21.5602 19.6201 21.7241 19.7818C21.888 19.9435 22.1091 20.0342 22.3393 20.0341H22.3498C22.4651 20.0324 22.5788 20.0079 22.6846 19.9622C22.7904 19.9165 22.8862 19.8504 22.9664 19.7676C23.0466 19.6849 23.1098 19.5871 23.1522 19.48C23.1947 19.3728 23.2156 19.2584 23.2138 19.1431C23.2098 18.9138 23.2563 18.6863 23.3501 18.4769C23.4438 18.2675 23.5825 18.0813 23.7563 17.9316C23.9302 17.7818 24.1348 17.6722 24.3558 17.6104C24.5767 17.5486 24.8085 17.5362 25.0348 17.5741C25.2618 17.6064 25.4924 17.5486 25.6773 17.413C25.8622 17.2775 25.9867 17.0749 26.0242 16.8487C26.0616 16.6225 26.009 16.3906 25.8777 16.2027C25.7463 16.0148 25.5466 15.8857 25.3213 15.8431H25.3243Z" fill="#D41235"/>
<path d="M47.3566 34.2883C47.3368 34.0567 47.2257 33.8426 47.0479 33.6929C46.8701 33.5433 46.6402 33.4704 46.4087 33.4903C46.1771 33.5102 45.963 33.6212 45.8133 33.799C45.6637 33.9768 45.5908 34.2067 45.6106 34.4383C45.6728 35.1145 45.5981 35.7964 45.391 36.4431C45.1839 37.0899 44.8487 37.6884 44.4054 38.2028C43.9621 38.7172 43.4197 39.1371 42.8106 39.4374C42.2015 39.7378 41.5382 39.9123 40.8601 39.9508C40.6278 39.9573 40.4076 40.0559 40.248 40.2248C40.0883 40.3938 40.0023 40.6192 40.0089 40.8515C40.0155 41.0839 40.114 41.3041 40.283 41.4637C40.4519 41.6233 40.6773 41.7093 40.9096 41.7028H40.9621C41.8745 41.6504 42.7669 41.415 43.5864 41.0106C44.4059 40.6063 45.1357 40.0412 45.7323 39.349C46.3289 38.6568 46.7802 37.8516 47.0592 36.9815C47.3383 36.1113 47.4394 35.1938 47.3566 34.2838V34.2883Z" fill="#D41235"/>
<path d="M40.5615 38.217C41.0438 38.2171 41.5204 38.112 41.9579 37.9092C42.3955 37.7064 42.7836 37.4107 43.0953 37.0426C43.407 36.6746 43.6347 36.243 43.7626 35.778C43.8905 35.313 43.9156 34.8257 43.8361 34.35C43.7981 34.1206 43.6705 33.9158 43.4815 33.7805C43.2924 33.6452 43.0574 33.5905 42.8281 33.6285C42.5987 33.6665 42.3938 33.794 42.2585 33.9831C42.1232 34.1721 42.0686 34.4071 42.1066 34.6365C42.1442 34.8628 42.1316 35.0947 42.0696 35.3157C42.0077 35.5366 41.8979 35.7412 41.748 35.915C41.5981 36.0888 41.4119 36.2274 41.2024 36.3212C40.993 36.4149 40.7655 36.4615 40.536 36.4575C40.3092 36.4627 40.0932 36.5556 39.9334 36.7166C39.7735 36.8777 39.6823 37.0944 39.6788 37.3212C39.6753 37.5481 39.7598 37.7675 39.9146 37.9334C40.0694 38.0993 40.2825 38.1988 40.509 38.211L40.5615 38.217Z" fill="#D41235"/>
</svg>
