<svg width="25" height="25" viewBox="0 0 25 25" fill="none" xmlns="http://www.w3.org/2000/svg">
<path fill-rule="evenodd" clip-rule="evenodd" d="M0.831356 12.3256C0.831356 18.9476 6.21742 24.3339 12.8382 24.3339C19.4566 24.3339 24.8415 18.9476 24.8415 12.3256C24.8415 5.70675 19.4566 0.321515 12.8382 0.321515C6.21742 0.321515 0.831356 5.70675 0.831356 12.3256ZM11.2005 18.0523C11.3467 18.1972 11.5439 18.2798 11.7506 18.2798C11.957 18.2798 12.1546 18.1972 12.3004 18.0523L20.7773 9.57641C21.0808 9.27283 21.0808 8.78059 20.7773 8.47681C20.4733 8.17339 19.9813 8.17339 19.6774 8.47681L11.7506 16.4027L7.38982 12.0397C7.08593 11.7354 6.59391 11.7354 6.2903 12.0397C5.98638 12.3433 5.98638 12.8357 6.2903 13.1391L11.2005 18.0523Z" fill="#EA3232"/>
</svg>
