<svg width="81" height="75" viewBox="0 0 81 75" fill="none" xmlns="http://www.w3.org/2000/svg">
<path d="M76.8258 72.1292H74.641C73.5614 60.7385 58.0583 57.4455 52.4969 67.4797C48.3622 64.4395 42.1161 67.1236 41.4006 72.1292H39.175C37.6272 72.1648 37.6084 74.4511 39.175 74.492H76.8257C78.3689 74.4581 78.3963 72.1709 76.8258 72.1292ZM43.8122 72.1292C44.6667 68.5101 49.5569 67.2891 51.9987 70.1848C52.2702 70.4952 52.6839 70.6417 53.0904 70.5713C53.4969 70.5007 53.8371 70.2232 53.9879 69.8393C57.5533 60.7061 71.0732 62.4973 72.2643 72.1293H43.8122V72.1292Z" fill="white"/>
<path d="M80.3422 33.2564C79.5404 31.4713 77.5424 30.9048 75.9094 30.1589C65.4512 25.3339 65.9313 27.6191 50.9772 30.4787L40.6471 21.652C40.4331 21.4693 40.161 21.3689 39.8796 21.3689H32.2744C31.8071 21.3689 31.3838 21.6443 31.1944 22.0716C31.005 22.4987 31.0852 22.9974 31.3991 23.3435L40.0292 32.8663C32.3825 34.5341 24.5432 36.2437 19.1723 37.4151L8.96288 27.2785C8.82707 27.1438 8.66069 27.0439 8.47792 26.9876L1.52879 24.8499C1.07786 24.7116 0.588025 24.8539 0.28221 25.2129C-0.0236047 25.5718 -0.0867844 26.0782 0.121661 26.5013L8.15777 42.8156C6.63594 43.6568 4.77348 44.0416 5.03723 46.2483C5.18202 47.1692 5.84832 47.9269 6.74844 48.1758L13.2385 49.7471L5.38322 57.0716C4.60001 57.7555 5.1472 59.1519 6.18896 59.1169H12.4998C12.7812 59.1169 13.0533 59.0164 13.2673 58.8338L15.5326 56.8984C16.0288 56.4746 16.0874 55.7289 15.6634 55.2327C15.2396 54.7364 14.4939 54.678 13.9977 55.102L12.0639 56.7542H9.18818L17.9043 48.6271L22.1284 48.1547L18.1313 51.5699C16.9681 52.5986 18.4683 54.355 19.6662 53.3663L21.8476 51.5025C27.6152 50.6956 32.7148 49.9822 37.2283 49.3509L28.507 58.9134C28.1916 59.2591 28.1101 59.7584 28.299 60.1864C28.4879 60.6145 28.9119 60.8909 29.3798 60.8909H37.1873C37.49 60.8909 37.7812 60.7747 38.0008 60.5663L51.9889 47.2861C76.5302 43.293 75.0592 46.6434 80.3663 36.1633C80.7771 35.238 80.7687 34.2059 80.3422 33.2564ZM34.9395 23.7316H39.4437L48.0796 31.1105C46.6356 31.4255 44.1732 31.9624 42.6918 32.2856L34.9395 23.7316ZM3.45112 27.9134L7.50486 29.1603L16.8069 38.3961L10.2619 41.7403L3.45112 27.9134ZM36.7159 58.5277H32.0564L44.4135 44.979L52.8961 43.1664L36.7159 58.5277ZM78.2069 35.203C76.4813 39.0866 75.084 41.6693 71.524 42.1671C71.4966 42.1711 64.0825 43.2081 54.9363 44.4876L57.566 41.991C58.4267 41.2023 57.6468 39.7127 56.5057 39.979L43.5493 42.7476C43.3082 42.7989 43.0894 42.9247 42.9233 43.1068L39.7229 46.6159C33.9628 47.4216 28.6822 48.1604 25.1868 48.6493L26.5894 47.4509C27.4698 46.7274 26.8227 45.2283 25.6905 45.3787L17.2534 46.3224C17.0012 46.3506 16.7647 46.4593 16.5791 46.6323L15.3083 47.8172L7.37708 45.8969C7.3733 45.8916 7.37062 45.8806 7.37015 45.8714L19.1975 39.8281C30.8358 37.2918 54.7793 32.0664 64.8613 29.869C67.8903 29.1691 70.6694 30.5266 73.7016 31.7953L60.5011 34.2205C59.1034 34.4871 59.2996 36.5575 60.7133 36.5642C60.9887 36.5758 77.2455 33.524 77.5125 33.4978C78.1223 33.8285 78.5097 34.5216 78.2069 35.203Z" fill="white"/>
<path d="M55.7931 35.097L54.864 35.2702C54.2226 35.3898 53.7996 36.0068 53.9191 36.648C54.0252 37.2165 54.5213 37.6132 55.0792 37.6132C55.2253 37.63 56.0668 37.4389 56.2262 37.4199C57.7476 37.1096 57.3247 34.8379 55.7931 35.097Z" fill="white"/>
<path d="M29.8008 39.9439L27.8728 40.3035C27.2314 40.4232 26.8084 41.0401 26.9279 41.6815C27.0447 42.3268 27.6799 42.7476 28.3059 42.6263L30.2339 42.2668C31.755 41.9566 31.3326 39.684 29.8008 39.9439Z" fill="white"/>
<path d="M43.2962 37.4273L41.3682 37.7868C40.7267 37.9066 40.3037 38.5234 40.4233 39.1648C40.54 39.8102 41.1753 40.231 41.8013 40.1097L43.7293 39.7501C45.2505 39.4399 44.8281 37.1681 43.2962 37.4273Z" fill="white"/>
<path d="M50.044 36.1691L48.116 36.5286C47.4745 36.6484 47.0515 37.2652 47.1711 37.9066C47.2879 38.5519 47.9231 38.9728 48.5491 38.8515L50.4771 38.4919C51.9983 38.1818 51.5757 35.9093 50.044 36.1691Z" fill="white"/>
<path d="M36.5484 38.6855L34.6206 39.0451C33.9792 39.1648 33.5562 39.7816 33.6757 40.423C33.7925 41.0684 34.4278 41.4892 35.0537 41.3679L36.9816 41.0084C38.5026 40.6981 38.0805 38.426 36.5484 38.6855Z" fill="white"/>
<path d="M23.053 41.202L22.1239 41.3753C21.4825 41.495 21.0596 42.112 21.1792 42.7534C21.2852 43.3216 21.7813 43.7183 22.3392 43.7183C22.4855 43.7353 23.3268 43.544 23.4864 43.5248C25.0079 43.2138 24.5842 40.9439 23.053 41.202Z" fill="white"/>
<path d="M6.03234 17.5528H34.3461C34.9986 17.5528 35.5275 17.0238 35.5275 16.3714C35.5275 15.7188 34.9986 15.1901 34.3461 15.1901H32.9152C32.2489 11.5077 27.6047 9.47505 24.4253 11.5718C20.0069 4.16937 8.44987 6.67293 7.41615 15.1899H6.03219C4.47932 15.2162 4.47964 17.5266 6.03234 17.5528ZM16.5544 9.51775C19.3919 9.51775 21.8961 11.2253 22.9341 13.868C23.0849 14.252 23.4252 14.5294 23.8317 14.6C24.2382 14.6706 24.6519 14.5241 24.9234 14.2134C26.4933 12.3413 29.6485 12.9438 30.458 15.1897H9.80264C10.364 11.9718 13.1779 9.51775 16.5544 9.51775Z" fill="white"/>
<path d="M50.9992 10.3979H79.313C79.9654 10.3979 80.4943 9.86895 80.4943 9.21651C80.4943 8.56392 79.9654 8.03516 79.313 8.03516H77.9309C77.7445 6.5762 77.2144 5.18798 76.3678 3.96787C75.4612 2.70743 73.5627 4.02381 74.4266 5.31481C74.9968 6.13646 75.3746 7.06116 75.5435 8.03516H54.8874C55.3627 6.80718 56.5563 5.93401 57.9501 5.93401C58.8963 5.93401 59.7974 6.34397 60.422 7.05864C60.968 7.72147 62.1212 7.52201 62.4112 6.71312C63.4492 4.07044 65.9534 2.36286 68.791 2.36286C69.3996 2.36286 70.0029 2.44258 70.584 2.59966C71.2139 2.76998 71.8625 2.3972 72.0327 1.76746C72.3861 -0.00236323 69.9681 0.0759417 68.7908 0C65.516 0 62.5713 1.6912 60.92 4.41675C57.74 2.31969 53.0964 4.3531 52.43 8.03516H50.999C49.446 8.06132 49.4465 10.3717 50.9992 10.3979Z" fill="white"/>
</svg>
