<svg width="61" height="60" viewBox="0 0 61 60" fill="none" xmlns="http://www.w3.org/2000/svg">
<g clip-path="url(#clip0)">
<path d="M20.3913 45.927C20.376 45.8514 20.3532 45.7775 20.3232 45.7065C20.2942 45.6358 20.2576 45.5685 20.2143 45.5055C20.1704 45.4408 20.1197 45.381 20.063 45.327C20.0081 45.2713 19.9478 45.221 19.883 45.177C19.8185 45.1348 19.7501 45.0987 19.6788 45.069C19.6077 45.0395 19.5337 45.0174 19.458 45.003C19.3081 44.974 19.154 44.974 19.0041 45.003C18.928 45.0176 18.8535 45.0397 18.7818 45.069C18.711 45.0987 18.6431 45.1348 18.5791 45.177C18.5143 45.221 18.454 45.2713 18.3991 45.327C18.3425 45.381 18.2918 45.4409 18.2478 45.5055C18.205 45.5688 18.1685 45.6361 18.1389 45.7065C18.0488 45.9207 18.0251 46.1568 18.0708 46.3845C18.0859 46.4596 18.1087 46.533 18.1389 46.6035C18.1679 46.6746 18.2044 46.7424 18.2478 46.806C18.3334 46.9348 18.4446 47.0451 18.5745 47.13C18.6386 47.1721 18.7064 47.2083 18.7772 47.238C18.849 47.2672 18.9235 47.2893 18.9996 47.304C19.0752 47.3202 19.1522 47.3282 19.2295 47.328C19.3073 47.3282 19.3849 47.3202 19.461 47.304C19.5367 47.2895 19.6107 47.2674 19.6818 47.238C19.7531 47.2083 19.8215 47.1721 19.8861 47.13C20.016 47.0456 20.1268 46.9352 20.2113 46.806C20.2553 46.7428 20.2918 46.6748 20.3202 46.6035C20.3504 46.533 20.3732 46.4596 20.3883 46.3845C20.4205 46.2336 20.4205 46.0778 20.3883 45.927H20.3913Z" fill="#D41235"/>
<path d="M54.3638 46.2885L54.3502 46.254C53.2626 43.7295 50.7107 42.7965 47.6943 43.8195L39.4606 46.077C38.9841 44.6475 37.7966 43.431 36.1175 42.813L36.0873 42.8025L27.0322 39.75C26.2758 38.784 23.919 36.3135 19.5004 36.3135C16.4129 36.3135 13.681 38.4135 12.1183 40.704H1.17993C1.0244 40.7042 0.870439 40.7348 0.726881 40.7942C0.583323 40.8535 0.452992 40.9403 0.343368 41.0497C0.233743 41.1591 0.146981 41.2889 0.0880601 41.4317C0.0291392 41.5744 -0.000781195 41.7273 1.55014e-05 41.8815V56.658C0.000416363 56.9688 0.125224 57.2668 0.347025 57.4864C0.568826 57.7061 0.869483 57.8295 1.18296 57.8295H8.20648C8.51981 57.8295 8.82031 57.706 9.04187 57.4863C9.26343 57.2666 9.38791 56.9687 9.38791 56.658V55.65H12.6841C12.8393 55.65 12.9929 55.6197 13.1362 55.5608C13.2796 55.5019 13.4098 55.4156 13.5195 55.3068C13.6292 55.1981 13.7162 55.0689 13.7756 54.9268C13.835 54.7846 13.8655 54.6323 13.8655 54.4785V54.141C15.7867 54.3075 16.419 54.6675 18.1828 55.677C20.4806 57.0066 22.8511 58.2084 25.2835 59.277L25.3349 59.298C26.5486 59.7607 27.8376 59.9986 29.1379 60C30.4883 60.0045 31.824 59.7211 33.0543 59.169L51.2537 52.707C51.287 52.695 51.3188 52.683 51.3505 52.668C53.0962 51.8745 55.6814 49.638 54.3638 46.2885ZM7.02505 55.485H2.36136V43.05H7.02505V55.485ZM11.4966 53.301H9.37883V43.05H11.4966V53.301ZM50.399 50.5185L32.2208 56.9775L32.1678 56.997L32.1194 57.018C29.5856 58.173 27.1774 57.4815 26.2335 57.117C23.8791 56.0875 21.5853 54.9271 19.3627 53.6415C17.428 52.536 16.4961 52.0035 13.864 51.7875V42.348C14.9849 40.527 17.1572 38.664 19.4989 38.664C23.5166 38.664 25.2184 41.2545 25.285 41.364C25.429 41.5974 25.6512 41.7732 25.9128 41.8605L35.3052 45.0225C36.8058 45.5805 37.5985 46.854 37.2339 48.1245C37.0675 48.7041 36.6767 49.195 36.1469 49.4903C35.6171 49.7856 34.991 49.8613 34.4051 49.701L23.8162 46.374C23.6651 46.3128 23.5029 46.2833 23.3398 46.2874C23.1768 46.2914 23.0163 46.3289 22.8685 46.3975C22.7208 46.4661 22.5889 46.5643 22.4813 46.6859C22.3738 46.8075 22.2927 46.9499 22.2434 47.1041C22.194 47.2583 22.1774 47.421 22.1946 47.5818C22.2118 47.7427 22.2623 47.8983 22.3432 48.0388C22.424 48.1794 22.5333 48.3018 22.6642 48.3984C22.7951 48.4949 22.9447 48.5636 23.1037 48.6L33.7108 51.933L33.7441 51.9435C34.3336 52.11 34.9504 52.1598 35.5593 52.0897C36.1682 52.0197 36.7572 51.8314 37.2926 51.5355C37.828 51.2396 38.2994 50.8419 38.6797 50.3653C39.06 49.8886 39.3418 49.3422 39.509 48.7575C39.5362 48.6635 39.5605 48.569 39.5816 48.474L48.4552 46.035C49.738 45.6015 51.4201 45.4455 52.1689 47.1555C52.9449 49.1655 50.9285 50.271 50.4051 50.5185H50.399Z" fill="#D41235"/>
<path d="M42.4345 15.4139C42.4192 15.3384 42.3964 15.2645 42.3664 15.1934C42.337 15.123 42.3005 15.0556 42.2575 14.9924C42.1719 14.8636 42.0607 14.7533 41.9307 14.6684C41.8667 14.6263 41.7988 14.5901 41.728 14.5604C41.6567 14.5314 41.5828 14.5093 41.5072 14.4944C41.2777 14.4493 41.0398 14.4723 40.8234 14.5604C40.7521 14.5901 40.6838 14.6263 40.6192 14.6684C40.4892 14.7528 40.3785 14.8632 40.294 14.9924C40.2503 15.0553 40.2138 15.1227 40.185 15.1934C40.1544 15.2643 40.1316 15.3382 40.117 15.4139C40.1014 15.489 40.0933 15.5653 40.0928 15.6419C40.0933 15.719 40.1014 15.7959 40.117 15.8714C40.1314 15.9467 40.1542 16.0202 40.185 16.0904C40.2138 16.1617 40.2503 16.2296 40.294 16.2929C40.3379 16.3576 40.3886 16.4174 40.4452 16.4714C40.5002 16.5271 40.5605 16.5774 40.6252 16.6214C40.6895 16.6637 40.7579 16.6994 40.8295 16.7279C40.9006 16.7579 40.9746 16.7805 41.0503 16.7954C41.1265 16.8109 41.204 16.819 41.2818 16.8194C41.4376 16.8187 41.5918 16.7876 41.7356 16.7279C41.8066 16.6994 41.8745 16.6637 41.9383 16.6214C42.0031 16.5774 42.0633 16.5271 42.1183 16.4714C42.1749 16.4174 42.2256 16.3575 42.2696 16.2929C42.3126 16.2293 42.3491 16.1614 42.3785 16.0904C42.4087 16.0199 42.4315 15.9466 42.4466 15.8714C42.4617 15.7959 42.4693 15.719 42.4692 15.6419C42.4653 15.565 42.4536 15.4886 42.4345 15.4139Z" fill="#D41235"/>
<path d="M59.3284 3.96905H52.3019C51.9885 3.96905 51.688 4.09247 51.4665 4.31217C51.2449 4.53187 51.1204 4.82985 51.1204 5.14055V6.15005H47.8242C47.5109 6.15005 47.2104 6.27347 46.9888 6.49317C46.7673 6.71287 46.6428 7.01085 46.6428 7.32155V7.65905C44.7217 7.49255 44.0894 7.13255 42.3255 6.12305C40.0278 4.79344 37.6572 3.59158 35.2249 2.52305L35.1719 2.50205C33.9708 2.03255 30.8199 1.11005 27.4571 2.62205L22.6981 4.31855L18.6894 0.343546C18.468 0.126267 18.169 0.00439453 17.8574 0.00439453C17.5459 0.00439453 17.2469 0.126267 17.0254 0.343546L3.86486 13.3935C3.75491 13.5015 3.66762 13.63 3.60806 13.7716C3.54849 13.9132 3.51782 14.0651 3.51782 14.2185C3.51782 14.372 3.54849 14.5239 3.60806 14.6655C3.66762 14.8071 3.75491 14.9356 3.86486 15.0435L26.3468 37.3501C26.7068 37.7071 27.5569 37.8151 28.0183 37.3501L40.0353 25.4356C40.3469 25.4626 40.6711 25.476 41.008 25.476C44.0954 25.476 46.8259 23.376 48.3885 21.087H59.3284C59.6421 21.087 59.943 20.9635 60.1649 20.7435C60.3867 20.5235 60.5113 20.2251 60.5113 19.914V5.14055C60.5109 4.82971 60.3861 4.53174 60.1643 4.31208C59.9425 4.09242 59.6419 3.96905 59.3284 3.96905ZM17.8499 2.82905L20.544 5.50055C19.7337 5.99464 18.8011 6.25623 17.8499 6.25623C16.8986 6.25623 15.966 5.99464 15.1557 5.50055L17.8499 2.82905ZM9.05799 16.8945L6.36386 14.223L9.05799 11.55C9.55628 12.3535 9.82008 13.2783 9.82008 14.2215C9.82008 15.1648 9.55628 16.0896 9.05799 16.893V16.8945ZM27.1833 34.8661L24.4892 32.196C25.2993 31.7022 26.2316 31.4408 27.1825 31.4408C28.1335 31.4408 29.0658 31.7022 29.8759 32.196L27.1833 34.8661ZM31.5792 30.5071C30.2995 29.5913 28.7614 29.0985 27.1833 29.0985C25.6052 29.0985 24.0671 29.5913 22.7874 30.5071L10.7613 18.582C11.6847 17.3128 12.1817 15.7874 12.1817 14.2223C12.1817 12.6572 11.6847 11.1318 10.7613 9.86255L13.463 7.18955C14.7431 8.1052 16.2814 8.59797 17.8597 8.59797C19.4381 8.59797 20.9764 8.1052 22.2564 7.18955L24.8083 9.72455C24.2497 9.80739 23.7106 9.98929 23.217 10.2615C22.3811 10.7216 21.7086 11.4261 21.2913 12.279C20.1065 12.499 19.003 13.0302 18.0958 13.8172C17.1886 14.6042 16.511 15.6182 16.1336 16.7533C15.7563 17.8885 15.693 19.1032 15.9504 20.2709C16.2079 21.4386 16.7765 22.5163 17.5971 23.3918C18.4177 24.2673 19.4602 24.9084 20.6158 25.2482C21.7714 25.5881 22.9978 25.6142 24.1671 25.3239C25.3364 25.0337 26.4057 24.4376 27.2635 23.5979C28.1213 22.7582 28.7361 21.7057 29.0439 20.55L33.0345 21.8925C32.8132 22.9144 32.8102 23.9708 33.0257 24.9939C33.2412 26.017 33.6703 26.9839 34.2855 27.8326L31.5792 30.5071ZM24.3939 18.9855L24.4241 18.996L26.7885 19.8C26.6258 20.5283 26.2765 21.2026 25.7742 21.7579C25.272 22.3132 24.6339 22.7307 23.9215 22.9702C23.2091 23.2096 22.4465 23.2628 21.7073 23.1247C20.9681 22.9866 20.2773 22.6618 19.7016 22.1817C19.1259 21.7017 18.6847 21.0825 18.4208 20.384C18.1568 19.6856 18.0789 18.9314 18.1946 18.1944C18.3103 17.4574 18.6157 16.7624 19.0813 16.1766C19.5469 15.5908 20.157 15.1339 20.8526 14.85C21.0704 16.6395 22.3774 18.243 24.3939 18.9855ZM35.9812 26.142C35.5256 25.4059 35.2654 24.5673 35.2249 23.7045C35.8676 24.166 36.5684 24.5422 37.3094 24.8235L35.9812 26.142ZM46.6428 19.4505C45.5219 21.2715 43.3496 23.1345 41.008 23.1345C40.595 23.1356 40.1824 23.107 39.7736 23.049C37.2126 22.68 35.8511 21.2416 35.3973 20.673C35.3731 20.6371 35.2703 20.5035 35.2551 20.4825C35.1134 20.2294 34.8814 20.0379 34.6047 19.9455L25.2016 16.782C23.701 16.224 22.9084 14.9505 23.2714 13.6815C23.4385 13.1025 23.8295 12.6124 24.3594 12.318C24.8892 12.0235 25.5149 11.9486 26.1002 12.1095L36.6892 15.4365C36.9883 15.5306 37.3128 15.503 37.5914 15.3599C37.87 15.2167 38.0798 14.9696 38.1747 14.673C38.2695 14.3765 38.2417 14.0547 38.0973 13.7784C37.9529 13.5022 37.7038 13.2941 37.4047 13.2L28.9834 10.5495L28.9093 10.4775L24.5482 6.15005L28.2951 4.81955L28.336 4.80455H28.3481L28.3965 4.78505C30.9303 3.63005 33.3385 4.32155 34.2825 4.68455C36.6342 5.71315 38.9256 6.87249 41.1456 8.15705C43.0804 9.26255 44.0122 9.79505 46.6443 10.011L46.6428 19.4505ZM51.1204 18.7455H49.0117V8.49755H51.1295L51.1204 18.7455ZM58.147 18.7455H53.4833V6.31355H58.147V18.7455Z" fill="#D41235"/>
</g>
<defs>
<clipPath id="clip0">
<rect width="60.5085" height="60" fill="white"/>
</clipPath>
</defs>
</svg>
