<svg width="48" height="61" viewBox="0 0 48 61" fill="none" xmlns="http://www.w3.org/2000/svg">
<path d="M5.90857 21.5308C5.67448 21.5305 5.44556 21.599 5.2508 21.7278C5.05603 21.8566 4.90418 22.0398 4.81446 22.2542C4.72474 22.4686 4.70118 22.7046 4.74678 22.9322C4.79237 23.1599 4.90507 23.3691 5.0706 23.5332C5.23613 23.6973 5.44704 23.8091 5.67665 23.8543C5.90626 23.8995 6.14424 23.8761 6.36045 23.7872C6.57667 23.6982 6.7614 23.5476 6.89127 23.3545C7.02114 23.1614 7.0903 22.9344 7.09 22.7023C7.09 22.3916 6.96553 22.0936 6.74397 21.8739C6.52241 21.6542 6.22191 21.5308 5.90857 21.5308Z" fill="#D41235"/>
<path d="M41.8809 3.60861C39.968 4.83995 37.7356 5.49393 35.4549 5.49111C33.7268 5.49162 32.0197 5.11572 30.4542 4.38997C28.8887 3.66421 27.5031 2.60633 26.3953 1.29111C26.06 0.887358 25.6387 0.562209 25.1616 0.338986C24.6846 0.115764 24.1636 0 23.6361 0C23.1086 0 22.5877 0.115764 22.1106 0.338986C21.6336 0.562209 21.2123 0.887358 20.8769 1.29111C19.7692 2.60633 18.3836 3.66421 16.8181 4.38997C15.2526 5.11572 13.5454 5.49162 11.8173 5.49111C9.53665 5.49393 7.30425 4.83995 5.39131 3.60861C3.06324 2.10861 0 3.87711 0 6.60861V30.5096C0 35.8271 1.71995 41.0216 4.84068 45.1376C12.5661 55.3226 22.7391 59.7311 23.1687 59.9141C23.316 59.9765 23.4745 60.0087 23.6346 60.0087C23.7948 60.0087 23.9533 59.9765 24.1005 59.9141C24.5301 59.7311 34.7031 55.3241 42.4285 45.1391C45.5508 41.0216 47.2692 35.8271 47.2692 30.5096V6.60861C47.2723 3.87711 44.2166 2.10861 41.8809 3.60861ZM40.5407 43.7276C34.1162 52.1966 25.6889 56.5631 23.6361 57.5426C21.5803 56.5646 13.1697 52.2146 6.73157 43.7261C3.9149 40.0136 2.36286 35.3186 2.36286 30.5066V6.60861C2.36286 5.70861 3.35671 5.09661 4.1055 5.57811C6.40184 7.05706 9.08214 7.84241 11.8203 7.83861C13.8934 7.84047 15.9417 7.39085 17.8203 6.52152C19.6989 5.65219 21.362 4.38435 22.6922 2.80761C22.8055 2.66637 22.9495 2.5523 23.1135 2.4739C23.2774 2.3955 23.4571 2.35479 23.6392 2.35479C23.8212 2.35479 24.0009 2.3955 24.1648 2.4739C24.3288 2.5523 24.4728 2.66637 24.5861 2.80761C25.9163 4.38435 27.5794 5.65219 29.458 6.52152C31.3366 7.39085 33.3849 7.84047 35.458 7.83861C38.1962 7.84241 40.8765 7.05706 43.1728 5.57811C43.9065 5.10861 44.9094 5.70861 44.9094 6.60861V30.5096C44.9094 35.3216 43.3573 40.0166 40.5407 43.7306V43.7276Z" fill="#D41235"/>
<path d="M42.0457 9.15877C41.8913 9.05027 41.7129 8.98003 41.5255 8.95393C41.3382 8.92784 41.1472 8.94664 40.9686 9.00877C39.1985 9.63309 37.3336 9.9522 35.4548 9.95227C31.3841 9.95151 27.4564 8.46317 24.4226 5.77177C24.206 5.58052 23.926 5.47485 23.636 5.47485C23.3459 5.47485 23.066 5.58052 22.8494 5.77177C19.8171 8.46555 15.8899 9.95658 11.8187 9.95977C9.93938 9.95984 8.07396 9.64073 6.30332 9.01627C6.12499 8.95393 5.93418 8.93488 5.74689 8.96074C5.55961 8.9866 5.3813 9.05659 5.22692 9.16487C5.07254 9.27314 4.94659 9.41654 4.85962 9.58303C4.77265 9.74952 4.7272 9.93426 4.72707 10.1218V18.0718C4.72139 18.2292 4.74777 18.3862 4.80462 18.5334C4.86147 18.6805 4.94763 18.8148 5.05797 18.9282C5.16831 19.0416 5.30055 19.1318 5.44681 19.1934C5.59308 19.255 5.75035 19.2867 5.90926 19.2867C6.06817 19.2867 6.22544 19.255 6.3717 19.1934C6.51796 19.1318 6.65021 19.0416 6.76055 18.9282C6.87088 18.8148 6.95705 18.6805 7.0139 18.5334C7.07075 18.3862 7.09712 18.2292 7.09144 18.0718V11.7088C8.63507 12.1071 10.2236 12.3088 11.8187 12.3088C16.1164 12.3044 20.2844 10.8485 23.636 8.18077C26.9879 10.8488 31.1565 12.3048 35.4548 12.3088C37.0498 12.3086 38.6383 12.1069 40.182 11.7088V30.2878C40.182 34.0918 38.9718 37.7878 36.7618 40.6873C32.2932 46.5823 26.8354 50.2318 23.6466 52.0288C20.4336 50.2078 14.9409 46.5298 10.5102 40.6888C8.30464 37.7848 7.08993 34.0888 7.08993 30.2878V27.4378C7.08993 27.1271 6.96546 26.8291 6.7439 26.6094C6.52234 26.3897 6.22184 26.2663 5.9085 26.2663C5.59517 26.2663 5.29467 26.3897 5.07311 26.6094C4.85155 26.8291 4.72707 27.1271 4.72707 27.4378V30.2878C4.72707 34.5958 6.10969 38.7898 8.62079 42.0988C13.5901 48.6493 19.8149 52.6168 23.0763 54.3988C23.2503 54.4937 23.4457 54.5435 23.6443 54.5435C23.8429 54.5435 24.0383 54.4937 24.2123 54.3988C27.4525 52.6438 33.6365 48.7093 38.6511 42.0988C41.1623 38.7988 42.5449 34.5988 42.5449 30.2893V10.1218C42.5461 9.93324 42.5013 9.74723 42.4144 9.57956C42.3275 9.41189 42.201 9.26753 42.0457 9.15877Z" fill="#D41235"/>
<path d="M36.8057 31.7729C36.7129 31.6636 36.5971 31.5758 36.4664 31.5157C36.3357 31.4556 36.1934 31.4246 36.0493 31.4249H25.2531L28.6401 10.4354C28.4021 10.429 28.1665 10.387 27.9412 10.3109C27.557 10.1753 27.1803 10.0195 26.8127 9.84436L26.7537 9.81436L23.1293 32.2454C23.1064 32.3848 23.1145 32.5274 23.1528 32.6634C23.1911 32.7994 23.2589 32.9255 23.3512 33.033C23.4436 33.1404 23.5585 33.2267 23.6879 33.2857C23.8172 33.3447 23.958 33.3752 24.1004 33.3749H34.8845L34.1902 37.3319H17.2478L22.1233 9.00886C22.0537 9.00886 21.9826 9.00136 21.913 8.99536C21.3481 9.32187 20.7032 9.48745 20.0494 9.47386L15.1179 38.1374C15.0937 38.2774 15.1006 38.4209 15.1382 38.558C15.1757 38.6951 15.243 38.8224 15.3354 38.931C15.4278 39.0396 15.5429 39.1268 15.6729 39.1867C15.8028 39.2465 15.9443 39.2774 16.0876 39.2774H35.0177C35.2492 39.2772 35.4733 39.196 35.6504 39.0481C35.8275 38.9002 35.9463 38.6951 35.9858 38.4689L37.022 32.5634C37.0457 32.4239 37.0387 32.281 37.0013 32.1446C36.964 32.0081 36.8972 31.8813 36.8057 31.7729Z" fill="#D41235"/>
</svg>
