<svg width="70" height="68" viewBox="0 0 70 68" fill="none" xmlns="http://www.w3.org/2000/svg">
<path d="M59.2338 45.0663V40.4066C59.2338 39.6515 58.6213 39.0394 57.8666 39.0394C57.1115 39.0394 56.4989 39.6515 56.4989 40.4066V44.2572L32.7061 57.3218V31.309L56.4989 18.2443V30.0144C56.4989 30.7696 57.1115 31.3816 57.8666 31.3816C58.6213 31.3816 59.2338 30.7696 59.2338 30.0144V15.9335C59.2338 15.4347 58.962 14.9754 58.5246 14.735L31.9969 0.168629C31.5873 -0.0562095 31.0906 -0.0562095 30.6805 0.168629L4.15332 14.735C3.71593 14.9754 3.44409 15.4347 3.44409 15.9335V26.2765C3.44409 27.0317 4.05612 27.6437 4.81128 27.6437C5.56643 27.6437 6.179 27.0317 6.179 26.2765V18.2443L13.432 22.2273V30.6419C13.432 31.1381 13.7007 31.5952 14.1338 31.8366L20.6856 35.488C20.8928 35.6033 21.1219 35.661 21.351 35.661C21.5908 35.661 21.8301 35.598 22.0437 35.4725C22.4619 35.2268 22.7187 34.7782 22.7187 34.2938V27.3265L29.9712 31.309V57.3218L6.179 44.2572V37.0335C6.179 36.2784 5.56643 35.6663 4.81128 35.6663C4.05612 35.6663 3.44409 36.2784 3.44409 37.0335V45.0663C3.44409 45.5651 3.71593 46.0244 4.15332 46.2647L30.6805 60.8311C30.8855 60.9438 31.1125 60.9999 31.339 60.9999C31.5654 60.9999 31.7918 60.9438 31.9969 60.8311L58.5246 46.2647C58.962 46.0244 59.2338 45.5651 59.2338 45.0663ZM41.7248 8.63023L45.0263 10.493L21.3964 23.4808L18.7224 22.0121L17.6094 21.384L41.2698 8.37976L41.7248 8.63023ZM47.9124 12.0274L55.0255 15.9335L31.339 28.9399L24.2371 25.0402L47.9124 12.0274ZM31.339 2.92703L38.4291 6.82031L14.7538 19.8331L7.65246 15.9335L31.339 2.92703ZM16.1669 29.8387V23.7286L17.3915 24.4015L19.9838 25.8643V31.9659L16.1669 29.8387Z" fill="white"/>
<path d="M57.8672 33.7068C57.5073 33.7068 57.1548 33.8516 56.899 34.1074C56.6448 34.3616 56.4995 34.713 56.4995 35.074C56.4995 35.434 56.6448 35.7865 56.899 36.0407C57.1548 36.2954 57.5062 36.4418 57.8672 36.4418C58.2267 36.4418 58.5781 36.2954 58.8339 36.0407C59.0881 35.7865 59.2344 35.434 59.2344 35.074C59.2344 34.7146 59.0881 34.3616 58.8339 34.1074C58.5781 33.8516 58.2267 33.7068 57.8672 33.7068Z" fill="white"/>
<path d="M5.77919 32.5539C6.0334 32.2996 6.17973 31.9472 6.17973 31.5872C6.17973 31.2278 6.0334 30.8748 5.77919 30.6206C5.52337 30.3664 5.17196 30.22 4.81254 30.22C4.45152 30.22 4.10011 30.3664 3.8443 30.6206C3.59009 30.8748 3.44482 31.2278 3.44482 31.5872C3.44482 31.9472 3.59009 32.2996 3.8443 32.5539C4.10011 32.8086 4.45152 32.9549 4.81254 32.9549C5.17196 32.9549 5.52337 32.8086 5.77919 32.5539Z" fill="white"/>
<path d="M67.9621 41.4865V20.4499C68.1698 20.5669 68.4005 20.6267 68.6323 20.6267C68.9827 20.6267 69.3325 20.4932 69.5995 20.2262C70.1336 19.6921 70.1336 18.8264 69.5995 18.2924L67.5615 16.2544C67.0275 15.7209 66.1618 15.7209 65.6277 16.2544L63.5898 18.2924C63.0557 18.8264 63.0557 19.6921 63.5898 20.2262C64.0336 20.67 64.7059 20.7437 65.2272 20.4499V41.4865C64.7059 41.1922 64.0336 41.2659 63.5898 41.7097C63.0557 42.2437 63.0557 43.11 63.5898 43.6435L65.6277 45.6815C65.8947 45.9485 66.2445 46.082 66.5944 46.082C66.9447 46.082 67.2945 45.9485 67.5615 45.6815L69.5995 43.6435C70.133 43.11 70.133 42.2437 69.5995 41.7097C69.1557 41.2664 68.4833 41.1927 67.9621 41.4865Z" fill="white"/>
<path d="M61.7701 50.3342L59.0336 49.4311C58.3164 49.194 57.5431 49.5839 57.3065 50.3011C57.095 50.9409 57.3834 51.6245 57.9575 51.9327L37.9992 62.8915C37.9955 62.3072 37.6153 61.7689 37.0267 61.5916C36.3036 61.3732 35.5404 61.7828 35.3225 62.5054L34.4899 65.2649C34.2721 65.988 34.6811 66.7506 35.4043 66.9685L38.1632 67.8011C38.2951 67.8411 38.4281 67.8598 38.5589 67.8598C39.1464 67.8598 39.689 67.4785 39.8674 66.8873C40.0522 66.2742 39.7851 65.6334 39.2591 65.3199L59.0737 54.4395C59.102 54.9864 59.4582 55.4857 60.0099 55.6678C60.1519 55.7148 60.2967 55.7373 60.4387 55.7373C61.0128 55.7373 61.5474 55.373 61.737 54.7979L62.6401 52.0614C62.7539 51.7169 62.7261 51.3415 62.5632 51.0178C62.3998 50.6936 62.1146 50.448 61.7701 50.3342Z" fill="white"/>
<path d="M27.386 62.5054C27.1676 61.7822 26.4044 61.3732 25.6818 61.5911C25.0933 61.7689 24.713 62.3072 24.7093 62.8915L4.75159 51.9326C5.32517 51.6245 5.61356 50.9409 5.40207 50.3011C5.16549 49.5838 4.39164 49.1945 3.67547 49.4311L0.938425 50.3342C0.930948 50.3369 0.926142 50.3401 0.920267 50.3433C0.611048 50.4501 0.338679 50.6664 0.168315 50.9756C-0.0207413 51.3201 -0.0447738 51.7094 0.0673783 52.0555C0.0679123 52.0576 0.0679123 52.0592 0.0684463 52.0613L0.971537 54.7978C1.16166 55.373 1.69572 55.7373 2.26983 55.7373C2.41189 55.7373 2.55662 55.7148 2.69868 55.6678C3.25036 55.4857 3.60657 54.9864 3.63488 54.4395L23.4495 65.3198C22.9234 65.6339 22.6564 66.2742 22.8412 66.8873C23.0196 67.4785 23.5627 67.8598 24.1496 67.8598C24.2805 67.8598 24.4134 67.8411 24.5454 67.8011L27.2642 66.9808C27.2658 66.9802 27.2674 66.9797 27.269 66.9792L27.3043 66.9685C27.3075 66.9679 27.3096 66.9658 27.3123 66.9647C27.6402 66.8638 27.9307 66.6422 28.1091 66.318C28.295 65.9799 28.3217 65.5976 28.2159 65.2558L27.386 62.5054Z" fill="white"/>
</svg>
