<svg width="60" height="60" viewBox="0 0 60 60" fill="none" xmlns="http://www.w3.org/2000/svg">
<path d="M11.6129 43.0651C11.0389 43.0651 10.4777 43.2353 10.0004 43.5542C9.52309 43.8732 9.15107 44.3265 8.93139 44.8568C8.71171 45.3872 8.65423 45.9708 8.76622 46.5338C8.87821 47.0968 9.15465 47.614 9.56057 48.0199C9.96649 48.4259 10.4837 48.7023 11.0467 48.8143C11.6097 48.9263 12.1933 48.8688 12.7237 48.6491C13.254 48.4294 13.7074 48.0574 14.0263 47.5801C14.3452 47.1028 14.5154 46.5416 14.5154 45.9676C14.5154 45.1978 14.2097 44.4595 13.6653 43.9152C13.121 43.3709 12.3827 43.0651 11.6129 43.0651ZM11.6129 46.9351C11.4216 46.9351 11.2345 46.8783 11.0754 46.772C10.9163 46.6657 10.7923 46.5146 10.7191 46.3378C10.6459 46.161 10.6267 45.9665 10.664 45.7788C10.7014 45.5911 10.7935 45.4187 10.9288 45.2834C11.0641 45.1481 11.2365 45.056 11.4242 45.0187C11.6119 44.9813 11.8064 45.0005 11.9832 45.0737C12.16 45.1469 12.3111 45.2709 12.4174 45.4301C12.5237 45.5892 12.5804 45.7762 12.5804 45.9676C12.5804 46.2242 12.4785 46.4703 12.2971 46.6517C12.1156 46.8331 11.8695 46.9351 11.6129 46.9351Z" fill="#D41235"/>
<path d="M48.3871 43.0651C47.8131 43.0654 47.2521 43.2358 46.7749 43.555C46.2978 43.8741 45.926 44.3275 45.7066 44.8579C45.4871 45.3883 45.4299 45.9718 45.542 46.5347C45.6542 47.0977 45.9308 47.6147 46.3367 48.0205C46.7427 48.4262 47.2599 48.7025 47.8229 48.8144C48.3859 48.9263 48.9694 48.8687 49.4997 48.649C50.0299 48.4293 50.4832 48.0572 50.802 47.5799C51.1209 47.1027 51.2911 46.5416 51.2911 45.9676C51.2911 45.5863 51.216 45.2087 51.07 44.8565C50.924 44.5042 50.7101 44.1842 50.4404 43.9147C50.1707 43.6451 49.8506 43.4313 49.4983 43.2856C49.146 43.1398 48.7684 43.0649 48.3871 43.0651ZM48.3871 46.9351C48.1957 46.9351 48.0087 46.8783 47.8496 46.772C47.6905 46.6657 47.5665 46.5146 47.4932 46.3378C47.42 46.161 47.4008 45.9665 47.4382 45.7788C47.4755 45.5911 47.5677 45.4187 47.703 45.2834C47.8383 45.1481 48.0107 45.056 48.1983 45.0187C48.386 44.9813 48.5805 45.0005 48.7573 45.0737C48.9341 45.1469 49.0852 45.2709 49.1915 45.43C49.2978 45.5892 49.3546 45.7762 49.3546 45.9676C49.3546 46.2242 49.2526 46.4702 49.0712 46.6517C48.8898 46.8331 48.6437 46.9351 48.3871 46.9351Z" fill="#D41235"/>
<path d="M45.4845 33.3868H42.5805C42.3239 33.3868 42.0779 33.4888 41.8964 33.6702C41.715 33.8517 41.613 34.0977 41.613 34.3543C41.613 34.6109 41.715 34.857 41.8964 35.0385C42.0779 35.2199 42.3239 35.3218 42.5805 35.3218H45.4845C45.7411 35.3218 45.9872 35.2199 46.1687 35.0385C46.3501 34.857 46.452 34.6109 46.452 34.3543C46.452 34.0977 46.3501 33.8517 46.1687 33.6702C45.9872 33.4888 45.7411 33.3868 45.4845 33.3868Z" fill="#D41235"/>
<path d="M25.1609 39.1935H32.9024C33.159 39.1935 33.4051 39.0916 33.5865 38.9102C33.7679 38.7287 33.8699 38.4826 33.8699 38.226C33.8699 37.9694 33.7679 37.7234 33.5865 37.5419C33.4051 37.3605 33.159 37.2585 32.9024 37.2585H25.1609C24.9043 37.2585 24.6582 37.3605 24.4767 37.5419C24.2953 37.7234 24.1934 37.9694 24.1934 38.226C24.1934 38.4826 24.2953 38.7287 24.4767 38.9102C24.6582 39.0916 24.9043 39.1935 25.1609 39.1935Z" fill="#D41235"/>
<path d="M32.9025 40.1609H30C29.8729 40.1609 29.7471 40.1859 29.6297 40.2345C29.5123 40.2832 29.4057 40.3544 29.3158 40.4443C29.226 40.5341 29.1547 40.6408 29.1061 40.7581C29.0575 40.8755 29.0325 41.0013 29.0325 41.1284C29.0325 41.2554 29.0575 41.3812 29.1061 41.4986C29.1547 41.616 29.226 41.7227 29.3158 41.8125C29.4057 41.9023 29.5123 41.9736 29.6297 42.0222C29.7471 42.0709 29.8729 42.0959 30 42.0959H32.9025C33.0295 42.0959 33.1553 42.0709 33.2727 42.0222C33.3901 41.9736 33.4968 41.9023 33.5866 41.8125C33.6764 41.7227 33.7477 41.616 33.7963 41.4986C33.845 41.3812 33.87 41.2554 33.87 41.1284C33.87 41.0013 33.845 40.8755 33.7963 40.7581C33.7477 40.6408 33.6764 40.5341 33.5866 40.4443C33.4968 40.3544 33.3901 40.2832 33.2727 40.2345C33.1553 40.1859 33.0295 40.1609 32.9025 40.1609Z" fill="#D41235"/>
<path d="M59.85 29.9596L51.1395 16.4116C51.0526 16.274 50.9324 16.1607 50.79 16.082C50.6476 16.0034 50.4877 15.9619 50.325 15.9616H38.709V10.6501C38.7086 9.7519 38.3516 8.89063 37.7165 8.25553C37.0814 7.62043 36.2202 7.26346 35.322 7.26306H22.6815C22.4253 7.26306 22.1796 7.36484 21.9984 7.546C21.8173 7.72716 21.7155 7.97286 21.7155 8.22906C21.7155 8.48526 21.8173 8.73097 21.9984 8.91213C22.1796 9.09329 22.4253 9.19506 22.6815 9.19506H35.322C35.5129 9.19506 35.702 9.23272 35.8783 9.30588C36.0547 9.37903 36.2149 9.48625 36.3498 9.6214C36.4847 9.75655 36.5915 9.91697 36.6643 10.0935C36.7371 10.27 36.7744 10.4591 36.774 10.6501V33.3871H1.935V10.6501C1.9354 10.2651 2.0885 9.896 2.36072 9.62378C2.63294 9.35156 3.00203 9.19846 3.387 9.19806H15.8055C16.052 9.18431 16.2839 9.0767 16.4535 8.89733C16.6232 8.71796 16.7177 8.48045 16.7177 8.23356C16.7177 7.98668 16.6232 7.74916 16.4535 7.56979C16.2839 7.39043 16.052 7.28281 15.8055 7.26906H3.387C2.48999 7.26985 1.62986 7.62613 0.995022 8.25984C0.36018 8.89356 0.00238109 9.75306 0 10.6501L0 45.9676C0 46.2242 0.101933 46.4702 0.283374 46.6517C0.464816 46.8331 0.710903 46.9351 0.9675 46.9351H4.9095C5.14146 48.5476 5.94689 50.0225 7.17813 51.0893C8.40937 52.1561 9.98389 52.7433 11.613 52.7433C13.2421 52.7433 14.8166 52.1561 16.0479 51.0893C17.2791 50.0225 18.0845 48.5476 18.3165 46.9351H41.6835C41.9155 48.5476 42.7209 50.0225 43.9521 51.0893C45.1834 52.1561 46.7579 52.7433 48.387 52.7433C50.0161 52.7433 51.5906 52.1561 52.8219 51.0893C54.0531 50.0225 54.8585 48.5476 55.0905 46.9351H59.0325C59.2891 46.9351 59.5352 46.8331 59.7166 46.6517C59.8981 46.4702 60 46.2242 60 45.9676V30.4831C60.0003 30.2979 59.9483 30.1164 59.85 29.9596ZM11.616 50.8096C10.6589 50.8096 9.72337 50.5258 8.9276 49.9941C8.13183 49.4623 7.5116 48.7066 7.14535 47.8224C6.77909 46.9382 6.68327 45.9652 6.86998 45.0265C7.05669 44.0879 7.51756 43.2256 8.19431 42.5489C8.87106 41.8721 9.73328 41.4113 10.672 41.2245C11.6106 41.0378 12.5836 41.1337 13.4678 41.4999C14.352 41.8662 15.1078 42.4864 15.6395 43.2822C16.1712 44.0779 16.455 45.0135 16.455 45.9706C16.4546 46.606 16.3291 47.2352 16.0855 47.8221C15.842 48.4091 15.4852 48.9423 15.0356 49.3914C14.5859 49.8404 14.0523 50.1966 13.465 50.4394C12.8778 50.6822 12.2485 50.807 11.613 50.8066L11.616 50.8096ZM36.774 45.0001H18.324C18.092 43.3876 17.2866 41.9127 16.0554 40.8459C14.8241 39.7791 13.2496 39.1919 11.6205 39.1919C9.99139 39.1919 8.41687 39.7791 7.18563 40.8459C5.95439 41.9127 5.14896 43.3876 4.917 45.0001H1.935V35.3221H36.774V45.0001ZM51.66 20.8066L57.2595 29.5156H43.548V20.8066H51.66ZM48.387 50.8066C47.4299 50.8066 46.4944 50.5228 45.6986 49.9911C44.9028 49.4593 44.2826 48.7036 43.9163 47.8194C43.5501 46.9352 43.4543 45.9622 43.641 45.0235C43.8277 44.0849 44.2886 43.2226 44.9653 42.5459C45.6421 41.8691 46.5043 41.4083 47.443 41.2215C48.3816 41.0348 49.3546 41.1307 50.2388 41.4969C51.123 41.8632 51.8788 42.4834 52.4105 43.2792C52.9422 44.0749 53.226 45.0105 53.226 45.9676C53.226 47.251 52.7162 48.4818 51.8087 49.3893C50.9012 50.2967 49.6704 50.8066 48.387 50.8066ZM58.065 37.2586H56.1285C55.8783 37.2487 55.6416 37.1424 55.4681 36.9619C55.2945 36.7814 55.1976 36.5407 55.1976 36.2903C55.1976 36.0399 55.2945 35.7992 55.4681 35.6187C55.6416 35.4382 55.8783 35.3319 56.1285 35.3221H58.065V37.2586ZM58.065 33.3871H56.1285C55.3699 33.4043 54.6483 33.7178 54.1179 34.2603C53.5875 34.8029 53.2905 35.5316 53.2905 36.2903C53.2905 37.0491 53.5875 37.7777 54.1179 38.3203C54.6483 38.8629 55.3699 39.1763 56.1285 39.1936H58.065V45.0001H55.0905C54.8585 43.3876 54.0531 41.9127 52.8219 40.8459C51.5906 39.7791 50.0161 39.1919 48.387 39.1919C46.7579 39.1919 45.1834 39.7791 43.9521 40.8459C42.7209 41.9127 41.9155 43.3876 41.6835 45.0001H38.709V17.9026H49.8L50.4225 18.8701H42.5805C42.3238 18.8705 42.0777 18.9727 41.8963 19.1544C41.7149 19.3361 41.613 19.5823 41.613 19.8391V30.4891C41.613 30.7458 41.7149 30.992 41.8963 31.1737C42.0777 31.3554 42.3238 31.4577 42.5805 31.4581H58.065V33.3871Z" fill="#D41235"/>
<path d="M19.3335 9.19354C19.8678 9.19354 20.301 8.76038 20.301 8.22604C20.301 7.69171 19.8678 7.25854 19.3335 7.25854C18.7991 7.25854 18.366 7.69171 18.366 8.22604C18.366 8.76038 18.7991 9.19354 19.3335 9.19354Z" fill="#D41235"/>
</svg>
