<svg width="60" height="60" viewBox="0 0 60 60" fill="none" xmlns="http://www.w3.org/2000/svg">
<path d="M20.3226 50.3229C18.722 50.3229 17.4194 51.6255 17.4194 53.2261C17.4194 54.8267 18.722 56.1293 20.3226 56.1293C21.9233 56.1293 23.2259 54.8267 23.2259 53.2261C23.226 51.6255 21.9234 50.3229 20.3226 50.3229ZM20.3226 54.1938C19.7894 54.1938 19.3549 53.7603 19.3549 53.2261C19.3549 52.6919 19.7895 52.2584 20.3226 52.2584C20.8559 52.2584 21.2904 52.6919 21.2904 53.2261C21.2904 53.7603 20.8559 54.1938 20.3226 54.1938Z" fill="#D41235"/>
<path d="M51.2907 50.3229C49.69 50.3229 48.3875 51.6255 48.3875 53.2261C48.3875 54.8267 49.69 56.1293 51.2907 56.1293C52.8913 56.1293 54.1939 54.8267 54.1939 53.2261C54.1939 51.6255 52.8913 50.3229 51.2907 50.3229ZM51.2907 54.1938C50.7575 54.1938 50.3229 53.7603 50.3229 53.2261C50.3229 52.6919 50.7575 52.2584 51.2907 52.2584C51.8238 52.2584 52.2584 52.6919 52.2584 53.2261C52.2584 53.7603 51.8238 54.1938 51.2907 54.1938Z" fill="#D41235"/>
<path d="M58.0647 32.9033H49.2418L47.7302 20.8104C47.4882 18.8769 45.8363 17.4194 43.8892 17.4194H26.4185C24.6718 17.4194 23.134 18.5971 22.6801 20.2839L21.2905 25.4478V1.93548C21.2904 0.868115 20.4223 0 19.3549 0H17.4194C16.3519 0 15.4839 0.868115 15.4839 1.93548V13.5484H13.3365L12.7355 11.1446C12.5197 10.2804 11.7474 9.67749 10.8571 9.67749H7.74201C7.74201 8.61002 6.87389 7.74201 5.80653 7.74201H3.87095C2.80349 7.74201 1.93548 8.61013 1.93548 9.67749V32.9034C0.868115 32.9033 0 33.7714 0 34.8388V36.7743C0 37.8417 0.868115 38.7097 1.93548 38.7097H15.4839V42.5807V43.5484V48.4945C14.2887 49.7168 13.5484 51.3861 13.5484 53.2258C13.5484 56.9604 16.5872 60 20.3226 60C23.0178 60 25.3443 58.4139 26.4339 56.129H45.1791C46.2688 58.4139 48.5953 60 51.2905 60C55.0259 60 58.0646 56.9603 58.0646 53.2258C58.0646 52.05 57.7627 50.9439 57.2333 49.9791L59.2258 48.4839C59.7107 48.121 60 47.5413 60 46.9355V34.8388C60.0002 33.7714 59.1322 32.9033 58.0647 32.9033ZM24.5497 20.7862C24.7772 19.9433 25.5445 19.3549 26.4184 19.3549H43.8881C44.8617 19.3549 45.6881 20.0836 45.8091 21.0504L47.2907 32.9033H46.2659C46.1574 32.9033 46.051 32.9139 45.9475 32.9314L44.6197 22.9694C44.492 22.0123 43.6675 21.2903 42.7016 21.2903H27.8363C26.9653 21.2903 26.1979 21.8768 25.9685 22.7178L20.5511 42.5808H18.6824L24.5497 20.7862ZM20.3226 46.4518C19.2823 46.4518 18.3009 46.6947 17.4194 47.1147V44.5163H25.531L26.9313 47.318C27.2613 47.977 27.9242 48.3873 28.6626 48.3873H46.5581C45.9901 48.9428 45.5246 49.598 45.1791 50.3228H26.434C25.3443 48.0379 23.0178 46.4518 20.3226 46.4518ZM23.613 38.7098H28.1779C28.6492 38.7098 29.0324 39.0931 29.0324 39.5643C29.0324 39.5992 29.0304 39.634 29.0256 39.6698L28.2746 45.6756L27.2614 43.6501C26.9323 42.991 26.2694 42.5807 25.531 42.5807H22.5572L23.613 38.7098ZM43.7779 46.4518L43.985 45.484H48.3873V46.4518H43.7779ZM48.3872 43.5485H44.4001L44.6072 42.5808H48.3872V43.5485ZM41.7979 46.4518H35.2133L36.5034 42.5808H42.6273L41.7979 46.4518ZM36.5043 40.6453C35.6701 40.6453 34.9317 41.1776 34.6684 41.9682L33.1733 46.4518H30.1287L30.9464 39.9117C30.961 39.7965 30.9677 39.6804 30.9677 39.5642C30.9677 38.4581 30.3154 37.5087 29.3806 37.0578L30.3465 34.6423L32.4707 35.7039L33.3368 33.9726L27.5303 31.0694L26.6642 32.8007L28.6103 33.7733L27.4103 36.7733H24.1412L27.8361 23.2248H42.7016L44.2646 34.9433L43.0423 40.6452H36.5043V40.6453ZM19.3549 1.93548V32.6363L17.4194 39.8256V1.93548H19.3549ZM10.8571 11.613L11.4581 14.0169C11.6739 14.881 12.4461 15.4839 13.3365 15.4839H15.4839V29.0324H13.3365C12.4471 29.0324 11.6748 29.6353 11.4591 30.4994L10.8571 32.9033H7.74201V27.0969H11.613C12.6804 27.0969 13.5484 26.2288 13.5484 25.1614V19.355C13.5484 18.2875 12.6803 17.4195 11.613 17.4195H7.74201V11.6131H10.8571V11.613ZM7.74201 25.1614V19.355H11.613V25.1614H7.74201ZM3.87095 9.67749H5.80643V32.9034H3.87095V9.67749ZM1.93548 36.7744V34.8388H10.8571C11.7464 34.8388 12.5188 34.2359 12.7345 33.3717L13.3365 30.9678H15.4839V36.7743H1.93548V36.7744ZM20.3226 58.0647C17.6545 58.0647 15.4839 55.894 15.4839 53.226C15.4839 50.558 17.6546 48.3873 20.3226 48.3873C22.9906 48.3873 25.1613 50.558 25.1613 53.226C25.1613 55.894 22.9907 58.0647 20.3226 58.0647ZM27.0195 54.1938C27.065 53.8763 27.0969 53.555 27.0969 53.226C27.0969 52.897 27.065 52.5758 27.0195 52.2583H44.5938C44.5483 52.5758 44.5164 52.897 44.5164 53.226C44.5164 53.555 44.5483 53.8763 44.5938 54.1938H27.0195ZM51.2906 58.0647C48.6225 58.0647 46.4519 55.894 46.4519 53.226C46.4519 50.558 48.6226 48.3873 51.2906 48.3873C53.9586 48.3873 56.1292 50.558 56.1292 53.226C56.1292 55.894 53.9586 58.0647 51.2906 58.0647ZM58.0647 46.9356L56.0711 48.4318C54.8451 47.2085 53.1544 46.4518 51.2905 46.4518H50.3227V42.5808C50.3227 41.5133 49.4546 40.6453 48.3872 40.6453H45.0224L46.2669 34.8389H58.0646V46.9356H58.0647Z" fill="#D41235"/>
</svg>
