<svg width="61" height="60" viewBox="0 0 61 60" fill="none" xmlns="http://www.w3.org/2000/svg">
<g clip-path="url(#clip0)">
<path d="M60.162 30.6365L53.7814 24.308C53.6881 24.2156 53.5797 24.1395 53.4607 24.083L44.5478 19.8005V8.37949C44.5481 8.17076 44.4922 7.96572 44.3858 7.7856C44.2795 7.60548 44.1265 7.45682 43.9427 7.35499L40.0566 5.21749C39.7834 5.07914 39.4667 5.05143 39.1733 5.1402C38.8799 5.22897 38.6327 5.42729 38.484 5.6933C38.3352 5.95932 38.2965 6.27223 38.376 6.56602C38.4554 6.85981 38.6469 7.1115 38.9099 7.26799L40.9294 8.37799L30.2542 14.2505L19.5744 8.38399L30.2542 2.51149L32.5898 3.79249C32.8642 3.94287 33.1877 3.97899 33.4889 3.89291C33.7902 3.80683 34.0447 3.6056 34.1963 3.33349C34.348 3.06138 34.3844 2.74067 34.2976 2.44193C34.2108 2.14318 34.0078 1.89087 33.7334 1.74049L30.8199 0.150492C30.6446 0.0544996 30.4476 0.00415039 30.2474 0.00415039C30.0471 0.00415039 29.8501 0.0544996 29.6748 0.150492L16.5566 7.35049C16.3727 7.4522 16.2197 7.60083 16.1133 7.78098C16.0069 7.96113 15.951 8.16622 15.9515 8.37499V19.8035L7.05071 24.0785C6.93108 24.1346 6.82208 24.2107 6.7285 24.3035L0.346368 30.6365C0.214082 30.7674 0.11502 30.9277 0.057323 31.104C-0.000374357 31.2803 -0.0150603 31.4676 0.0144719 31.6506C0.0440041 31.8337 0.116912 32.0071 0.227203 32.1568C0.337495 32.3064 0.482023 32.428 0.648911 32.5115L6.38058 35.375V47.93C6.38114 48.1493 6.44384 48.364 6.56153 48.5496C6.67921 48.7353 6.84714 48.8844 7.04617 48.98L14.3072 52.4645C14.5892 52.5999 14.914 52.6188 15.21 52.5168C15.506 52.4148 15.7491 52.2004 15.8857 51.9207C16.0223 51.6411 16.0413 51.319 15.9384 51.0255C15.8356 50.732 15.6194 50.4909 15.3373 50.3555L8.74948 47.1905V36.557L23.0491 43.703C23.2704 43.8129 23.5209 43.851 23.7652 43.812C24.0096 43.7729 24.2353 43.6587 24.4106 43.4855L29.0713 38.864V56.9585L23.0204 54.056C22.8808 53.9889 22.7291 53.9498 22.5742 53.9408C22.4193 53.9318 22.2642 53.9532 22.1176 54.0037C21.971 54.0542 21.8359 54.1328 21.72 54.2351C21.604 54.3373 21.5095 54.4613 21.4419 54.5997C21.3742 54.7382 21.3348 54.8885 21.3257 55.0422C21.3167 55.1958 21.3382 55.3496 21.3891 55.495C21.4401 55.6403 21.5194 55.7743 21.6225 55.8893C21.7256 56.0042 21.8506 56.0979 21.9902 56.165L29.7308 59.8835C29.8917 59.9605 30.068 60.0005 30.2466 60.0005C30.4253 60.0005 30.6016 59.9605 30.7625 59.8835L53.4531 48.9845C53.6522 48.8889 53.8201 48.7398 53.9378 48.5541C54.0555 48.3685 54.1182 48.1538 54.1187 47.9345V35.3795L59.8504 32.516C60.0173 32.4325 60.1618 32.3109 60.2721 32.1613C60.3824 32.0116 60.4553 31.8382 60.4848 31.6551C60.5144 31.4721 60.4997 31.2848 60.442 31.1085C60.3843 30.9322 60.2852 30.7719 60.1529 30.641L60.162 30.6365ZM31.4296 16.277L42.1834 10.3685V22.103L31.4296 28.0115V16.277ZM18.3113 10.3685L29.0652 16.277V28.0115L18.3113 22.103V10.3685ZM23.3456 41.2295L3.17665 31.148L7.80404 26.5505L28.2438 36.368L23.3456 41.2295ZM30.2542 34.733L10.2743 25.133L15.9485 22.4075V22.8005C15.9482 23.0094 16.0041 23.2146 16.1105 23.395C16.2168 23.5753 16.3698 23.7243 16.5536 23.8265L29.6718 31.0265C29.847 31.1229 30.044 31.1735 30.2444 31.1735C30.4447 31.1735 30.6417 31.1229 30.8169 31.0265L43.9352 23.8265C44.119 23.7244 44.2721 23.5755 44.3785 23.3951C44.4848 23.2147 44.5407 23.0094 44.5402 22.8005V22.4135L50.2265 25.145L30.2542 34.733ZM51.7634 47.195L31.4356 56.9585V38.8655L36.0963 43.4855C36.2715 43.6587 36.4973 43.7729 36.7416 43.812C36.9859 43.851 37.2365 43.8129 37.4577 43.703L51.7574 36.557L51.7634 47.195ZM37.1627 41.2295L32.2646 36.3725L52.7043 26.5505L57.3317 31.148L37.1627 41.2295Z" fill="#D41235"/>
<path d="M19.3854 52.3786C19.1922 52.1874 18.9381 52.0686 18.6665 52.0423C18.3948 52.016 18.1224 52.0839 17.8956 52.2344C17.6688 52.385 17.5016 52.6088 17.4225 52.8678C17.3435 53.1269 17.3574 53.4051 17.462 53.6551C17.5666 53.9051 17.7553 54.1114 17.9961 54.2388C18.2369 54.3663 18.5148 54.4071 18.7824 54.3542C19.0501 54.3013 19.291 54.158 19.4641 53.9488C19.6372 53.7395 19.7318 53.4773 19.7318 53.2066C19.7314 52.896 19.6068 52.5983 19.3854 52.3786Z" fill="#D41235"/>
<path d="M37.1416 3.67204C36.9484 3.47972 36.6939 3.35981 36.4214 3.33275C36.149 3.30569 35.8756 3.37316 35.6478 3.52365C35.4199 3.67415 35.2518 3.89835 35.172 4.15803C35.0922 4.41771 35.1057 4.6968 35.2102 4.94771C35.3147 5.19862 35.5038 5.40581 35.7451 5.53397C35.9864 5.66212 36.2651 5.70331 36.5337 5.65049C36.8022 5.59768 37.044 5.45414 37.2177 5.24435C37.3915 5.03456 37.4864 4.77151 37.4865 4.50004C37.4859 4.18979 37.3619 3.89229 37.1416 3.67204Z" fill="#D41235"/>
<path d="M52.945 1.42651C52.6316 1.42651 52.3311 1.54994 52.1096 1.76964C51.888 1.98934 51.7635 2.28731 51.7635 2.59801V10.116C51.7635 10.4267 51.888 10.7247 52.1096 10.9444C52.3311 11.1641 52.6316 11.2875 52.945 11.2875C53.2583 11.2875 53.5588 11.1641 53.7804 10.9444C54.0019 10.7247 54.1264 10.4267 54.1264 10.116V2.59801C54.1266 2.44412 54.0962 2.29169 54.0369 2.14947C53.9776 2.00725 53.8906 1.87802 53.7808 1.7692C53.6711 1.66038 53.5408 1.57409 53.3973 1.51529C53.2539 1.45648 53.1002 1.42632 52.945 1.42651Z" fill="#D41235"/>
<path d="M53.7814 14.1915C53.588 13.9988 53.3332 13.8786 53.0604 13.8514C52.7876 13.8242 52.5138 13.8916 52.2855 14.0423C52.0573 14.1929 51.8889 14.4174 51.8089 14.6775C51.729 14.9376 51.7425 15.2171 51.8472 15.4683C51.9518 15.7196 52.1412 15.9271 52.3829 16.0554C52.6246 16.1837 52.9037 16.2249 53.1726 16.172C53.4416 16.119 53.6836 15.9752 53.8575 15.765C54.0315 15.5548 54.1265 15.2913 54.1263 15.0195C54.1257 14.7092 54.0018 14.4117 53.7814 14.1915Z" fill="#D41235"/>
<path d="M7.56363 6.32703C7.40836 6.32703 7.2546 6.35738 7.11117 6.41635C6.96773 6.47531 6.83743 6.56174 6.7277 6.67068C6.61797 6.77962 6.53098 6.90895 6.4717 7.05125C6.41242 7.19356 6.382 7.34606 6.3822 7.50003V10.4295C6.3822 10.7402 6.50667 11.0382 6.72824 11.2579C6.9498 11.4776 7.2503 11.601 7.56363 11.601C7.87696 11.601 8.17747 11.4776 8.39903 11.2579C8.62059 11.0382 8.74506 10.7402 8.74506 10.4295V7.50003C8.74546 7.346 8.71518 7.19342 8.65597 7.05102C8.59676 6.90862 8.50977 6.77922 8.40001 6.67024C8.29024 6.56126 8.15986 6.47484 8.01633 6.41594C7.8728 6.35705 7.71896 6.32683 7.56363 6.32703Z" fill="#D41235"/>
<path d="M7.56363 14.4136C7.25016 14.414 6.94966 14.5377 6.72814 14.7577C6.50663 14.9776 6.3822 15.2757 6.3822 15.5866V18.0001C6.3822 18.3108 6.50667 18.6088 6.72823 18.8285C6.9498 19.0482 7.2503 19.1716 7.56363 19.1716C7.87696 19.1716 8.17747 19.0482 8.39903 18.8285C8.62059 18.6088 8.74506 18.3108 8.74506 18.0001V15.5866C8.74526 15.4326 8.71485 15.2801 8.65556 15.1378C8.59628 14.9955 8.50929 14.8662 8.39956 14.7572C8.28984 14.6483 8.15953 14.5619 8.01609 14.5029C7.87266 14.4439 7.71891 14.4136 7.56363 14.4136Z" fill="#D41235"/>
</g>
<defs>
<clipPath id="clip0">
<rect width="60.5085" height="60" fill="white"/>
</clipPath>
</defs>
</svg>
