<svg width="70" height="66" viewBox="0 0 70 66" fill="none" xmlns="http://www.w3.org/2000/svg">
<path d="M68.9747 37.1567C68.4083 37.1567 67.9493 37.6158 67.9493 38.1821V63.5805C67.9493 63.7689 67.7961 63.9223 67.6075 63.9223H15.9507C15.3844 63.9223 14.9253 64.3814 14.9253 64.9477C14.9253 65.514 15.3844 65.9731 15.9507 65.9731H67.6075C68.9267 65.9731 70.0001 64.8997 70.0001 63.5805V38.1821C70.0001 37.6158 69.5412 37.1567 68.9747 37.1567Z" fill="white"/>
<path d="M70 25.5962C70 24.277 68.9266 23.2036 67.6074 23.2036H65.3516V20.5384C65.3516 19.3435 64.47 18.3531 63.3236 18.1766V16.1406C63.3236 14.5826 62.0561 13.315 60.498 13.315C59.4256 13.315 58.491 13.9156 58.0125 14.798L39.9097 8.1777L40.0534 7.67074C40.2598 6.94271 40.1164 6.179 39.6601 5.57539C39.2038 4.97178 38.5082 4.62561 37.7516 4.62561H35.8887V1.02539C35.8887 0.459101 35.4297 0 34.8633 0C34.297 0 33.8379 0.459101 33.8379 1.02539V4.62561H32.2485C31.4918 4.62561 30.7962 4.97178 30.3399 5.57539C29.8837 6.179 29.7403 6.94271 29.9467 7.67061L30.0904 8.17756L11.9875 14.798C11.509 13.9156 10.5744 13.315 9.50195 13.315C7.94391 13.315 6.67639 14.5826 6.67639 16.1406V18.1766C5.53 18.3531 4.64844 19.3434 4.64844 20.5384V23.2036H2.39258C1.07338 23.2036 0 24.277 0 25.5962V63.5805C0 64.8997 1.07338 65.9731 2.39258 65.9731H11.3021C11.8684 65.9731 12.3275 65.514 12.3275 64.9477C12.3275 64.3814 11.8684 63.9223 11.3021 63.9223H2.39258C2.20418 63.9223 2.05078 63.7689 2.05078 63.5805V30.1314H30.5338C31.1001 30.1314 31.5592 29.6723 31.5592 29.1061C31.5592 28.5398 31.1001 28.0807 30.5338 28.0807H2.05078V25.5961C2.05078 25.4077 2.20418 25.2543 2.39258 25.2543H67.6074C67.796 25.2543 67.9492 25.4077 67.9492 25.5961V28.0807H35.1824C34.6161 28.0807 34.157 28.5398 34.157 29.1061C34.157 29.6723 34.6161 30.1314 35.1824 30.1314H67.9492V33.5336C67.9492 34.0998 68.4082 34.5589 68.9746 34.5589C69.541 34.5589 70 34.0998 70 33.5336V25.5962ZM57.6953 20.5384C57.6953 20.35 57.8486 20.1966 58.0371 20.1966H62.959C63.1475 20.1966 63.3008 20.35 63.3008 20.5384V23.2036H57.6953V20.5384ZM60.498 15.3658C60.9253 15.3658 61.2728 15.7134 61.2728 16.1406V18.1459H59.7233V16.1406C59.7233 15.7134 60.0708 15.3658 60.498 15.3658ZM31.9758 6.81215C32.0141 6.76143 32.1005 6.67639 32.2485 6.67639H37.7516C37.8995 6.67639 37.9859 6.76143 38.0241 6.81201C38.0624 6.86273 38.1206 6.96896 38.0803 7.11129L37.2148 10.1646C37.1733 10.3111 37.0381 10.4132 36.886 10.4132H36.0254V9.38779C36.0254 8.8215 35.5664 8.3624 35 8.3624C34.4337 8.3624 33.9746 8.8215 33.9746 9.38779V10.4132H33.114C32.9619 10.4132 32.8266 10.3109 32.7852 10.1646L31.9196 7.11129C31.8793 6.96896 31.9375 6.86287 31.9758 6.81215ZM30.8122 10.7241C31.1026 11.7487 32.0491 12.4642 33.114 12.4642H36.886C37.9509 12.4642 38.8976 11.7487 39.188 10.7241L39.3489 10.1563L57.6725 16.8574V18.1766C56.5261 18.3531 55.6445 19.3434 55.6445 20.5384V23.2036H14.3555V20.5384C14.3555 19.3434 13.4739 18.3531 12.3275 18.1766V16.8574L30.6513 10.1563L30.8122 10.7241ZM9.50195 15.3658C9.9292 15.3658 10.2767 15.7134 10.2767 16.1406V18.1459H8.72717V16.1406C8.72717 15.7134 9.07471 15.3658 9.50195 15.3658ZM6.69922 20.5384C6.69922 20.35 6.85262 20.1966 7.04102 20.1966H11.9629C12.1513 20.1966 12.3047 20.35 12.3047 20.5384V23.2036H6.69922V20.5384Z" fill="white"/>
<path d="M6.79053 32.9576C5.84812 32.9576 5.08154 33.7242 5.08154 34.6666V59.1105C5.08154 60.0529 5.84812 60.8195 6.79053 60.8195H9.88953C10.8319 60.8195 11.5985 60.0529 11.5985 59.1105V34.6666C11.5985 33.7242 10.8319 32.9576 9.88953 32.9576H6.79053ZM9.5476 58.7687H7.13232V35.0084H9.54773V58.7687H9.5476Z" fill="white"/>
<path d="M18.776 60.8195C19.7184 60.8195 20.485 60.0529 20.485 59.1105V34.6666C20.485 33.7242 19.7184 32.9576 18.776 32.9576H15.677C14.7346 32.9576 13.968 33.7242 13.968 34.6666V59.1105C13.968 60.0529 14.7346 60.8195 15.677 60.8195H18.776ZM16.0189 35.0084H18.4343V58.7687H16.0189V35.0084Z" fill="white"/>
<path d="M27.6627 60.8195C28.6051 60.8195 29.3717 60.0529 29.3717 59.1105V34.6666C29.3717 33.7242 28.6051 32.9576 27.6627 32.9576H24.5637C23.6213 32.9576 22.8547 33.7242 22.8547 34.6666V59.1105C22.8547 60.0529 23.6213 60.8195 24.5637 60.8195H27.6627ZM24.9057 35.0084H27.3211V58.7687H24.9057V35.0084Z" fill="white"/>
<path d="M36.5494 60.8195C37.4918 60.8195 38.2584 60.0529 38.2584 59.1105V34.6666C38.2584 33.7242 37.4918 32.9576 36.5494 32.9576H33.4504C32.508 32.9576 31.7415 33.7242 31.7415 34.6666V59.1105C31.7415 60.0529 32.508 60.8195 33.4504 60.8195H36.5494ZM33.7924 35.0084H36.2078V58.7687H33.7924V35.0084Z" fill="white"/>
<path d="M45.4363 60.8195C46.3787 60.8195 47.1453 60.0529 47.1453 59.1105V34.6666C47.1453 33.7242 46.3787 32.9576 45.4363 32.9576H42.3374C41.395 32.9576 40.6284 33.7242 40.6284 34.6666V59.1105C40.6284 60.0529 41.395 60.8195 42.3374 60.8195H45.4363ZM42.6792 35.0084H45.0945V58.7687H42.6792V35.0084Z" fill="white"/>
<path d="M54.323 60.8195C55.2654 60.8195 56.032 60.0529 56.032 59.1105V34.6666C56.032 33.7242 55.2654 32.9576 54.323 32.9576H51.2241C50.2817 32.9576 49.5151 33.7242 49.5151 34.6666V59.1105C49.5151 60.0529 50.2817 60.8195 51.2241 60.8195H54.323ZM51.5659 35.0084H53.9812V58.7687H51.5659V35.0084Z" fill="white"/>
<path d="M63.2097 60.8195C64.1521 60.8195 64.9187 60.0529 64.9187 59.1105V34.6666C64.9187 33.7242 64.1521 32.9576 63.2097 32.9576H60.1108C59.1684 32.9576 58.4019 33.7242 58.4019 34.6666V59.1105C58.4019 60.0529 59.1684 60.8195 60.1108 60.8195H63.2097ZM60.4526 35.0084H62.8679V58.7687H60.4526V35.0084Z" fill="white"/>
</svg>
