<svg width="150" height="37" viewBox="0 0 150 37" fill="none" xmlns="http://www.w3.org/2000/svg">
<path d="M46.0151 18.4709V8.73893H48.3971V16.4293H52.3716V18.4709H46.0151Z" fill="black"/>
<path d="M53.5252 18.4709V8.73893H59.623V10.7806H55.9072V12.5501H58.8744V14.5917H55.9072V16.4293H59.8136V18.4709H53.5252Z" fill="black"/>
<path d="M61.341 18.4709V8.73893H63.723V12.4956H64.703L66.7175 8.73893H69.2764L66.6494 13.394V13.4212L69.4261 18.4709H66.7583L64.703 14.5237H63.723V18.4709H61.341Z" fill="black"/>
<path d="M69.6761 13.5437C69.6761 12.1281 70.1525 10.9485 71.1053 10.0048C72.058 9.05198 73.2785 8.57559 74.7667 8.57559C76.2548 8.57559 77.4753 9.05198 78.4281 10.0048C79.3809 10.9485 79.8573 12.1281 79.8573 13.5437C79.8573 14.9955 79.3809 16.2069 78.4281 17.1779C77.4753 18.1488 76.2548 18.6343 74.7667 18.6343C73.2785 18.6343 72.058 18.1488 71.1053 17.1779C70.1525 16.2069 69.6761 14.9955 69.6761 13.5437ZM72.1397 13.5437C72.1397 14.3785 72.3847 15.0727 72.8747 15.6262C73.3738 16.1797 74.0044 16.4565 74.7667 16.4565C75.5289 16.4565 76.155 16.1797 76.645 15.6262C77.1441 15.0727 77.3936 14.3785 77.3936 13.5437C77.3936 12.7452 77.1441 12.0827 76.645 11.5564C76.155 11.0211 75.5289 10.7534 74.7667 10.7534C74.0044 10.7534 73.3738 11.0211 72.8747 11.5564C72.3847 12.0827 72.1397 12.7452 72.1397 13.5437Z" fill="black"/>
<path d="M81.1546 15.5854V13.5437H85.4285V15.5854H81.1546Z" fill="black"/>
<path d="M87.2475 18.4709V8.73893H89.6295V16.4293H93.6039V18.4709H87.2475Z" fill="black"/>
<path d="M93.9742 13.5437C93.9742 12.1281 94.4506 10.9485 95.4034 10.0048C96.3562 9.05198 97.5766 8.57559 99.0648 8.57559C100.553 8.57559 101.773 9.05198 102.726 10.0048C103.679 10.9485 104.155 12.1281 104.155 13.5437C104.155 14.9955 103.679 16.2069 102.726 17.1779C101.773 18.1488 100.553 18.6343 99.0648 18.6343C97.5766 18.6343 96.3562 18.1488 95.4034 17.1779C94.4506 16.2069 93.9742 14.9955 93.9742 13.5437ZM96.4378 13.5437C96.4378 14.3785 96.6828 15.0727 97.1728 15.6262C97.6719 16.1797 98.3026 16.4565 99.0648 16.4565C99.827 16.4565 100.453 16.1797 100.943 15.6262C101.442 15.0727 101.692 14.3785 101.692 13.5437C101.692 12.7452 101.442 12.0827 100.943 11.5564C100.453 11.0211 99.827 10.7534 99.0648 10.7534C98.3026 10.7534 97.6719 11.0211 97.1728 11.5564C96.6828 12.0827 96.4378 12.7452 96.4378 13.5437Z" fill="black"/>
<path d="M105.153 13.5845C105.153 12.1599 105.634 10.9712 106.596 10.0184C107.567 9.05652 108.787 8.57559 110.257 8.57559C111.773 8.57559 113.021 9.00661 114.001 9.86866L112.857 11.6517C112.576 11.3976 112.213 11.1844 111.768 11.012C111.324 10.8396 110.897 10.7534 110.489 10.7534C109.527 10.7534 108.806 11.0165 108.325 11.5428C107.853 12.0601 107.617 12.7134 107.617 13.5028C107.617 14.4012 107.885 15.118 108.42 15.6534C108.964 16.1888 109.627 16.4565 110.407 16.4565C111.115 16.4565 111.773 16.2206 112.381 15.7487V15.0001H111.006V12.972H114.491V18.4709H112.503V18.1987L112.517 17.7904H112.49C112.199 18.0445 111.818 18.2486 111.346 18.4029C110.884 18.5571 110.412 18.6343 109.931 18.6343C108.624 18.6343 107.499 18.176 106.555 17.2595C105.621 16.3431 105.153 15.118 105.153 13.5845Z" fill="black"/>
<path d="M116.198 18.4709V8.73893H118.58V18.4709H116.198Z" fill="black"/>
<path d="M119.957 17.2459L121.209 15.4356C121.518 15.7079 121.886 15.9438 122.312 16.1434C122.738 16.3431 123.151 16.4429 123.551 16.4429C123.868 16.4429 124.113 16.3793 124.286 16.2523C124.467 16.1253 124.558 15.9619 124.558 15.7623C124.558 15.5536 124.449 15.363 124.231 15.1906C124.022 15.0092 123.759 14.8594 123.442 14.7415C123.124 14.6235 122.779 14.4738 122.407 14.2923C122.035 14.1017 121.69 13.9021 121.373 13.6934C121.055 13.4847 120.788 13.1989 120.57 12.8359C120.361 12.4639 120.257 12.0374 120.257 11.5564C120.257 10.6672 120.583 9.95032 121.237 9.40588C121.899 8.85235 122.748 8.57559 123.782 8.57559C124.989 8.57559 126.005 8.94309 126.831 9.6781L125.824 11.6245C125.542 11.3795 125.207 11.1753 124.816 11.012C124.426 10.8487 124.045 10.767 123.673 10.767C123.328 10.767 123.07 10.8305 122.897 10.9576C122.725 11.0846 122.639 11.2525 122.639 11.4612C122.639 11.6699 122.743 11.8604 122.952 12.0328C123.169 12.2052 123.437 12.3504 123.755 12.4684C124.072 12.5773 124.417 12.7225 124.789 12.904C125.161 13.0764 125.506 13.2669 125.824 13.4756C126.141 13.6753 126.404 13.9611 126.613 14.3331C126.831 14.6961 126.94 15.118 126.94 15.599C126.94 16.461 126.631 17.1824 126.014 17.7632C125.406 18.3439 124.562 18.6343 123.483 18.6343C122.829 18.6343 122.189 18.5163 121.563 18.2804C120.946 18.0445 120.411 17.6996 119.957 17.2459Z" fill="black"/>
<path d="M130.549 18.4709V10.7806H127.596V8.73893H135.885V10.7806H132.931V18.4709H130.549Z" fill="black"/>
<path d="M137.067 18.4709V8.73893H139.449V18.4709H137.067Z" fill="black"/>
<path d="M140.976 13.5845C140.976 12.1508 141.452 10.9576 142.405 10.0048C143.367 9.05198 144.592 8.57559 146.08 8.57559C146.76 8.57559 147.423 8.69356 148.067 8.92948C148.711 9.15634 149.265 9.49662 149.728 9.95032L148.625 11.747C148.299 11.4566 147.913 11.2207 147.468 11.0392C147.033 10.8487 146.606 10.7534 146.189 10.7534C145.281 10.7534 144.596 11.0256 144.133 11.5701C143.671 12.1054 143.439 12.7588 143.439 13.5301C143.439 14.3195 143.675 15.0046 144.147 15.5854C144.628 16.1661 145.309 16.4565 146.189 16.4565C147.114 16.4565 147.976 16.0572 148.775 15.2587L150 17.0009C148.947 18.0898 147.641 18.6343 146.08 18.6343C144.537 18.6343 143.299 18.1624 142.364 17.2187C141.438 16.2659 140.976 15.0545 140.976 13.5845Z" fill="black"/>
<path d="M46.0567 27.1289V23.3714H44.6592V23.008H47.8425V23.3714H46.4394V27.1289H46.0567Z" fill="black"/>
<path d="M47.852 28.3012V24.1804H48.2125V24.491L48.1959 24.7197H48.207C48.292 24.5282 48.4196 24.3797 48.5896 24.2742C48.7634 24.1647 48.9594 24.11 49.1775 24.11C49.5509 24.11 49.8467 24.2527 50.0648 24.5379C50.283 24.8193 50.392 25.1906 50.392 25.6517C50.392 26.1167 50.2756 26.4919 50.0427 26.7772C49.8097 27.0585 49.5102 27.1992 49.1442 27.1992C48.9483 27.1992 48.769 27.1484 48.6063 27.0468C48.4436 26.9413 48.316 26.7967 48.2236 26.613H48.2125C48.2236 26.6834 48.2292 26.7693 48.2292 26.871V28.3012H47.852ZM48.2181 25.6634C48.2181 25.98 48.2976 26.2555 48.4565 26.4899C48.6192 26.7244 48.8355 26.8416 49.1054 26.8416C49.3605 26.8416 49.575 26.7361 49.7487 26.5251C49.9225 26.3102 50.0094 26.021 50.0094 25.6575C50.0094 25.3019 49.9262 25.0167 49.7598 24.8017C49.5971 24.5829 49.3845 24.4735 49.122 24.4735C48.8669 24.4735 48.6525 24.5731 48.4787 24.7724C48.3049 24.9717 48.2181 25.2687 48.2181 25.6634Z" fill="black"/>
<path d="M50.8738 26.3375C50.8738 25.6536 51.4395 25.3117 52.5708 25.3117H52.7372V25.2296C52.7372 24.7216 52.508 24.4676 52.0495 24.4676C51.7648 24.4676 51.5005 24.5614 51.2565 24.749L51.0845 24.4441C51.1955 24.3425 51.3415 24.2624 51.5227 24.2038C51.7038 24.1413 51.8868 24.11 52.0717 24.11C52.4081 24.11 52.6651 24.2077 52.8426 24.4031C53.0237 24.5946 53.1143 24.874 53.1143 25.2414V27.1289H52.7538V26.783L52.7705 26.5368H52.7594C52.6817 26.7244 52.5579 26.8827 52.3878 27.0116C52.2214 27.1367 52.031 27.1992 51.8166 27.1992C51.5615 27.1992 51.3396 27.123 51.1511 26.9706C50.9662 26.8182 50.8738 26.6072 50.8738 26.3375ZM51.2565 26.3024C51.2565 26.4509 51.3119 26.5818 51.4228 26.6951C51.5338 26.8084 51.6872 26.8651 51.8831 26.8651C52.1383 26.8651 52.3434 26.7518 52.4987 26.5251C52.6577 26.2984 52.7372 26.0444 52.7372 25.7631V25.6282H52.5764C52.4581 25.6282 52.3545 25.6302 52.2658 25.6341C52.1808 25.638 52.068 25.6536 51.9275 25.681C51.7907 25.7044 51.6779 25.7377 51.5892 25.7806C51.5005 25.8236 51.4228 25.8901 51.3563 25.98C51.2897 26.0698 51.2565 26.1773 51.2565 26.3024Z" fill="black"/>
<path d="M53.9828 27.1289V24.1804H54.3599V25.4407H55.9904V24.1804H56.3675V27.1289H55.9904V25.7924H54.3599V27.1289H53.9828Z" fill="black"/>
<path d="M57.0763 25.6575C57.0763 25.2081 57.2168 24.8388 57.4978 24.5497C57.7788 24.2566 58.1263 24.11 58.5404 24.11C58.7326 24.11 58.9212 24.1471 59.1061 24.2214C59.2909 24.2917 59.4425 24.3953 59.5608 24.5321L59.3667 24.831C59.2669 24.7216 59.143 24.6337 58.9951 24.5672C58.851 24.5008 58.7031 24.4676 58.5515 24.4676C58.2409 24.4676 57.9821 24.579 57.7751 24.8017C57.568 25.0245 57.4645 25.3097 57.4645 25.6575C57.4645 26.0014 57.568 26.2848 57.7751 26.5075C57.9858 26.7264 58.2483 26.8358 58.5626 26.8358C58.7252 26.8358 58.8879 26.8006 59.0506 26.7303C59.2133 26.656 59.3482 26.5564 59.4555 26.4313L59.6274 26.7303C59.5054 26.8749 59.3464 26.9901 59.1504 27.0761C58.9582 27.1582 58.7548 27.1992 58.5404 27.1992C58.1226 27.1992 57.7732 27.0566 57.4922 26.7713C57.2149 26.4821 57.0763 26.1109 57.0763 25.6575Z" fill="black"/>
<path d="M60.2706 27.1289V24.1804H62.6055V27.1289H62.2283V24.5321H60.6478V27.1289H60.2706Z" fill="black"/>
<path d="M63.3154 25.64C63.3154 25.2062 63.4577 24.8428 63.7424 24.5497C64.0271 24.2566 64.3746 24.11 64.785 24.11C65.1954 24.11 65.543 24.2566 65.8276 24.5497C66.116 24.8428 66.2602 25.2062 66.2602 25.64C66.2602 26.0816 66.116 26.4528 65.8276 26.7537C65.543 27.0507 65.1954 27.1992 64.785 27.1992C64.3746 27.1992 64.0271 27.0507 63.7424 26.7537C63.4577 26.4528 63.3154 26.0816 63.3154 25.64ZM63.7036 25.64C63.7036 25.9839 63.8071 26.2691 64.0142 26.4958C64.2249 26.7225 64.4819 26.8358 64.785 26.8358C65.0882 26.8358 65.3452 26.7225 65.5559 26.4958C65.7666 26.2691 65.872 25.9839 65.872 25.64C65.872 25.3078 65.7666 25.0303 65.5559 24.8076C65.3452 24.5809 65.0882 24.4676 64.785 24.4676C64.4819 24.4676 64.2249 24.5809 64.0142 24.8076C63.8071 25.0303 63.7036 25.3078 63.7036 25.64Z" fill="black"/>
<path d="M66.9647 28.3012V24.1804H67.3252V24.491L67.3085 24.7197H67.3196C67.4047 24.5282 67.5322 24.3797 67.7023 24.2742C67.876 24.1647 68.072 24.11 68.2901 24.11C68.6636 24.11 68.9593 24.2527 69.1775 24.5379C69.3956 24.8193 69.5047 25.1906 69.5047 25.6517C69.5047 26.1167 69.3882 26.4919 69.1553 26.7772C68.9224 27.0585 68.6229 27.1992 68.2569 27.1992C68.0609 27.1992 67.8816 27.1484 67.7189 27.0468C67.5562 26.9413 67.4287 26.7967 67.3363 26.613H67.3252C67.3363 26.6834 67.3418 26.7693 67.3418 26.871V28.3012H66.9647ZM67.3307 25.6634C67.3307 25.98 67.4102 26.2555 67.5692 26.4899C67.7319 26.7244 67.9481 26.8416 68.218 26.8416C68.4732 26.8416 68.6876 26.7361 68.8614 26.5251C69.0351 26.3102 69.122 26.021 69.122 25.6575C69.122 25.3019 69.0388 25.0167 68.8725 24.8017C68.7098 24.5829 68.4972 24.4735 68.2347 24.4735C67.9796 24.4735 67.7651 24.5731 67.5914 24.7724C67.4176 24.9717 67.3307 25.2687 67.3307 25.6634Z" fill="black"/>
<path d="M70.8533 27.1289V24.5321H69.8384V24.1804H72.2508V24.5321H71.2304V27.1289H70.8533Z" fill="black"/>
<path d="M72.8301 27.1289V24.1804H73.2072V25.4407H74.8377V24.1804H75.2148V27.1289H74.8377V25.7924H73.2072V27.1289H72.8301Z" fill="black"/>
<path d="M75.9235 25.64C75.9235 25.2062 76.0659 24.8428 76.3506 24.5497C76.6353 24.2566 76.9828 24.11 77.3932 24.11C77.8036 24.11 78.1511 24.2566 78.4358 24.5497C78.7242 24.8428 78.8684 25.2062 78.8684 25.64C78.8684 26.0816 78.7242 26.4528 78.4358 26.7537C78.1511 27.0507 77.8036 27.1992 77.3932 27.1992C76.9828 27.1992 76.6353 27.0507 76.3506 26.7537C76.0659 26.4528 75.9235 26.0816 75.9235 25.64ZM76.3118 25.64C76.3118 25.9839 76.4153 26.2691 76.6223 26.4958C76.8331 26.7225 77.09 26.8358 77.3932 26.8358C77.6964 26.8358 77.9533 26.7225 78.1641 26.4958C78.3748 26.2691 78.4802 25.9839 78.4802 25.64C78.4802 25.3078 78.3748 25.0303 78.1641 24.8076C77.9533 24.5809 77.6964 24.4676 77.3932 24.4676C77.09 24.4676 76.8331 24.5809 76.6223 24.8076C76.4153 25.0303 76.3118 25.3078 76.3118 25.64Z" fill="black"/>
<path d="M79.534 25.6458V25.2824H81.1091V25.6458H79.534Z" fill="black"/>
<path d="M81.5762 26.7479L81.7425 26.4489C81.9755 26.7185 82.2786 26.8534 82.6521 26.8534C82.9367 26.8534 83.1808 26.7576 83.3841 26.5661C83.5912 26.3746 83.7095 26.1245 83.739 25.8158H82.3027V25.4993H83.739C83.7095 25.1866 83.593 24.9346 83.3897 24.7431C83.1863 24.5516 82.9441 24.4559 82.6632 24.4559C82.3415 24.4559 82.0624 24.577 81.8257 24.8193L81.6316 24.5262C81.7462 24.3933 81.8978 24.2917 82.0864 24.2214C82.2749 24.1471 82.469 24.11 82.6687 24.11C83.0791 24.11 83.4229 24.2566 83.7002 24.5497C83.9812 24.8388 84.1217 25.2081 84.1217 25.6575C84.1217 26.1109 83.9831 26.4821 83.7058 26.7713C83.4285 27.0566 83.0791 27.1992 82.6576 27.1992C82.2176 27.1992 81.8572 27.0488 81.5762 26.7479Z" fill="black"/>
<path d="M84.8317 27.1289V24.1804H85.2088V25.4289H85.6525L86.4899 24.1804H86.9336L85.963 25.5813V25.5931L87.0445 27.1289H86.5842L85.658 25.7806H85.2088V27.1289H84.8317Z" fill="black"/>
<path d="M87.2698 25.6575C87.2698 25.2081 87.4103 24.8388 87.6913 24.5497C87.9723 24.2566 88.3198 24.11 88.7339 24.11C88.9262 24.11 89.1147 24.1471 89.2996 24.2214C89.4845 24.2917 89.636 24.3953 89.7544 24.5321L89.5603 24.831C89.4604 24.7216 89.3366 24.6337 89.1887 24.5672C89.0445 24.5008 88.8966 24.4676 88.745 24.4676C88.4344 24.4676 88.1756 24.579 87.9686 24.8017C87.7615 25.0245 87.658 25.3097 87.658 25.6575C87.658 26.0014 87.7615 26.2848 87.9686 26.5075C88.1793 26.7264 88.4418 26.8358 88.7561 26.8358C88.9188 26.8358 89.0815 26.8006 89.2441 26.7303C89.4068 26.656 89.5418 26.5564 89.649 26.4313L89.8209 26.7303C89.6989 26.8749 89.5399 26.9901 89.344 27.0761C89.1517 27.1582 88.9484 27.1992 88.7339 27.1992C88.3161 27.1992 87.9667 27.0566 87.6858 26.7713C87.4085 26.4821 87.2698 26.1109 87.2698 25.6575Z" fill="black"/>
<path d="M90.4642 27.1289V24.1804H92.799V27.1289H92.4219V24.5321H90.8413V27.1289H90.4642Z" fill="black"/>
<path d="M93.5089 25.6575C93.5089 25.1886 93.6402 24.8134 93.9027 24.5321C94.1689 24.2507 94.4979 24.11 94.8898 24.11C95.2596 24.11 95.5461 24.2409 95.7494 24.5028C95.9528 24.7607 96.0545 25.0831 96.0545 25.47C96.0545 25.5169 96.0508 25.5833 96.0434 25.6693H93.9027C93.9101 26.0327 94.0173 26.318 94.2243 26.5251C94.4314 26.7322 94.6846 26.8358 94.9841 26.8358C95.3058 26.8358 95.5886 26.7185 95.8326 26.4841L96.0045 26.7889C95.8751 26.9139 95.7162 27.0136 95.5276 27.0878C95.3427 27.1621 95.1579 27.1992 94.973 27.1992C94.5552 27.1992 94.2058 27.0546 93.9248 26.7654C93.6476 26.4763 93.5089 26.107 93.5089 25.6575ZM93.9193 25.3527H95.6718C95.6607 25.0596 95.5812 24.8349 95.4333 24.6786C95.2854 24.5184 95.1006 24.4383 94.8787 24.4383C94.6384 24.4383 94.4295 24.5184 94.2521 24.6786C94.0746 24.8388 93.9637 25.0635 93.9193 25.3527Z" fill="black"/>
<path d="M97.1233 26.7889H98.5542V24.5204H97.5781V24.6962C97.5781 25.6067 97.4265 26.3043 97.1233 26.7889ZM96.3746 26.7889H96.7185C97.0438 26.3395 97.2065 25.6302 97.2065 24.661V24.1804H98.9313V26.7889H99.325V27.8323H98.9646V27.1289H96.7351V27.8323H96.3746V26.7889Z" fill="black"/>
<path d="M99.9366 27.1289V24.1804H100.303V26.1148C100.303 26.3844 100.297 26.531 100.286 26.5544H100.297C100.312 26.5271 100.408 26.3805 100.585 26.1148L101.955 24.1804H102.316V27.1289H101.944V25.1886C101.944 25.1378 101.944 25.0792 101.944 25.0127C101.948 24.9463 101.952 24.8896 101.955 24.8428C101.959 24.792 101.961 24.7646 101.961 24.7607H101.95C101.95 24.7685 101.933 24.7959 101.9 24.8428C101.87 24.8896 101.83 24.9483 101.778 25.0186C101.73 25.089 101.693 25.1456 101.667 25.1886L100.297 27.1289H99.9366Z" fill="black"/>
<path d="M103.906 27.1289V24.5321H102.892V24.1804H105.304V24.5321H104.284V27.1289H103.906Z" fill="black"/>
<path d="M105.575 25.64C105.575 25.2062 105.718 24.8428 106.003 24.5497C106.287 24.2566 106.635 24.11 107.045 24.11C107.456 24.11 107.803 24.2566 108.088 24.5497C108.376 24.8428 108.52 25.2062 108.52 25.64C108.52 26.0816 108.376 26.4528 108.088 26.7537C107.803 27.0507 107.456 27.1992 107.045 27.1992C106.635 27.1992 106.287 27.0507 106.003 26.7537C105.718 26.4528 105.575 26.0816 105.575 25.64ZM105.964 25.64C105.964 25.9839 106.067 26.2691 106.274 26.4958C106.485 26.7225 106.742 26.8358 107.045 26.8358C107.348 26.8358 107.605 26.7225 107.816 26.4958C108.027 26.2691 108.132 25.9839 108.132 25.64C108.132 25.3078 108.027 25.0303 107.816 24.8076C107.605 24.5809 107.348 24.4676 107.045 24.4676C106.742 24.4676 106.485 24.5809 106.274 24.8076C106.067 25.0303 105.964 25.3078 105.964 25.64Z" fill="black"/>
<path d="M109.225 28.3012V24.1804H109.585V24.491L109.569 24.7197H109.58C109.665 24.5282 109.792 24.3797 109.962 24.2742C110.136 24.1647 110.332 24.11 110.55 24.11C110.924 24.11 111.219 24.2527 111.438 24.5379C111.656 24.8193 111.765 25.1906 111.765 25.6517C111.765 26.1167 111.648 26.4919 111.415 26.7772C111.182 27.0585 110.883 27.1992 110.517 27.1992C110.321 27.1992 110.142 27.1484 109.979 27.0468C109.816 26.9413 109.689 26.7967 109.596 26.613H109.585C109.596 26.6834 109.602 26.7693 109.602 26.871V28.3012H109.225ZM109.591 25.6634C109.591 25.98 109.67 26.2555 109.829 26.4899C109.992 26.7244 110.208 26.8416 110.478 26.8416C110.733 26.8416 110.948 26.7361 111.121 26.5251C111.295 26.3102 111.382 26.021 111.382 25.6575C111.382 25.3019 111.299 25.0167 111.133 24.8017C110.97 24.5829 110.757 24.4735 110.495 24.4735C110.24 24.4735 110.025 24.5731 109.851 24.7724C109.678 24.9717 109.591 25.2687 109.591 25.6634Z" fill="black"/>
<path d="M112.302 25.6575C112.302 25.2081 112.443 24.8388 112.724 24.5497C113.004 24.2566 113.352 24.11 113.766 24.11C113.958 24.11 114.147 24.1471 114.332 24.2214C114.517 24.2917 114.668 24.3953 114.787 24.5321L114.592 24.831C114.493 24.7216 114.369 24.6337 114.221 24.5672C114.077 24.5008 113.929 24.4676 113.777 24.4676C113.467 24.4676 113.208 24.579 113.001 24.8017C112.794 25.0245 112.69 25.3097 112.69 25.6575C112.69 26.0014 112.794 26.2848 113.001 26.5075C113.212 26.7264 113.474 26.8358 113.788 26.8358C113.951 26.8358 114.114 26.8006 114.276 26.7303C114.439 26.656 114.574 26.5564 114.681 26.4313L114.853 26.7303C114.731 26.8749 114.572 26.9901 114.376 27.0761C114.184 27.1582 113.981 27.1992 113.766 27.1992C113.348 27.1992 112.999 27.0566 112.718 26.7713C112.441 26.4821 112.302 26.1109 112.302 25.6575Z" fill="black"/>
<path d="M115.496 27.1289V24.1804H115.874V25.4289H116.317L117.155 24.1804H117.598L116.628 25.5813V25.5931L117.709 27.1289H117.249L116.323 25.7806H115.874V27.1289H115.496Z" fill="black"/>
<path d="M117.966 26.3375C117.966 25.6536 118.531 25.3117 119.663 25.3117H119.829V25.2296C119.829 24.7216 119.6 24.4676 119.141 24.4676C118.857 24.4676 118.592 24.5614 118.348 24.749L118.176 24.4441C118.287 24.3425 118.433 24.2624 118.615 24.2038C118.796 24.1413 118.979 24.11 119.164 24.11C119.5 24.11 119.757 24.2077 119.935 24.4031C120.116 24.5946 120.206 24.874 120.206 25.2414V27.1289H119.846V26.783L119.862 26.5368H119.851C119.774 26.7244 119.65 26.8827 119.48 27.0116C119.313 27.1367 119.123 27.1992 118.909 27.1992C118.653 27.1992 118.432 27.123 118.243 26.9706C118.058 26.8182 117.966 26.6072 117.966 26.3375ZM118.348 26.3024C118.348 26.4509 118.404 26.5818 118.515 26.6951C118.626 26.8084 118.779 26.8651 118.975 26.8651C119.23 26.8651 119.435 26.7518 119.591 26.5251C119.75 26.2984 119.829 26.0444 119.829 25.7631V25.6282H119.668C119.55 25.6282 119.446 25.6302 119.358 25.6341C119.273 25.638 119.16 25.6536 119.019 25.681C118.883 25.7044 118.77 25.7377 118.681 25.7806C118.592 25.8236 118.515 25.8901 118.448 25.98C118.382 26.0698 118.348 26.1773 118.348 26.3024Z" fill="black"/>
<path d="M120.792 27.1289L121.463 26.1148L121.591 25.9389V25.9272C121.413 25.8881 121.261 25.7943 121.136 25.6458C121.01 25.4934 120.947 25.3039 120.947 25.0772C120.947 24.788 121.036 24.5672 121.213 24.4148C121.395 24.2585 121.635 24.1804 121.934 24.1804H122.916V27.1289H122.539V25.9975H121.962L121.23 27.1289H120.792ZM121.979 25.6869H122.539V24.4852H122.006C121.559 24.4852 121.335 24.6825 121.335 25.0772C121.335 25.2687 121.395 25.4192 121.513 25.5286C121.635 25.6341 121.79 25.6869 121.979 25.6869Z" fill="black"/>
<path d="M125.207 27.1289V24.1804H125.584V25.4289H126.028L126.865 24.1804H127.309L126.338 25.5813V25.5931L127.42 27.1289H126.96L126.033 25.7806H125.584V27.1289H125.207Z" fill="black"/>
<path d="M127.645 25.64C127.645 25.2062 127.788 24.8428 128.072 24.5497C128.357 24.2566 128.704 24.11 129.115 24.11C129.525 24.11 129.873 24.2566 130.157 24.5497C130.446 24.8428 130.59 25.2062 130.59 25.64C130.59 26.0816 130.446 26.4528 130.157 26.7537C129.873 27.0507 129.525 27.1992 129.115 27.1992C128.704 27.1992 128.357 27.0507 128.072 26.7537C127.788 26.4528 127.645 26.0816 127.645 25.64ZM128.033 25.64C128.033 25.9839 128.137 26.2691 128.344 26.4958C128.555 26.7225 128.812 26.8358 129.115 26.8358C129.418 26.8358 129.675 26.7225 129.886 26.4958C130.096 26.2691 130.202 25.9839 130.202 25.64C130.202 25.3078 130.096 25.0303 129.886 24.8076C129.675 24.5809 129.418 24.4676 129.115 24.4676C128.812 24.4676 128.555 24.5809 128.344 24.8076C128.137 25.0303 128.033 25.3078 128.033 25.64Z" fill="black"/>
<path d="M131.189 27.1289L131.417 24.1804H131.816L132.653 25.9975L132.825 26.4137H132.836C132.895 26.2613 132.953 26.1226 133.008 25.9975L133.851 24.1804H134.245L134.478 27.1289H134.106L133.968 25.2238V24.7138H133.957C133.916 24.8388 133.857 24.9815 133.779 25.1417L133.003 26.7889H132.659L131.888 25.1534L131.705 24.7138H131.694C131.701 24.9483 131.701 25.1183 131.694 25.2238L131.555 27.1289H131.189Z" fill="black"/>
<path d="M135.27 27.1289V24.1804H137.605V27.1289H137.227V24.5321H135.647V27.1289H135.27Z" fill="black"/>
<path d="M138.259 26.3375C138.259 25.6536 138.825 25.3117 139.956 25.3117H140.122V25.2296C140.122 24.7216 139.893 24.4676 139.435 24.4676C139.15 24.4676 138.886 24.5614 138.642 24.749L138.47 24.4441C138.581 24.3425 138.727 24.2624 138.908 24.2038C139.089 24.1413 139.272 24.11 139.457 24.11C139.793 24.11 140.05 24.2077 140.228 24.4031C140.409 24.5946 140.5 24.874 140.5 25.2414V27.1289H140.139V26.783L140.156 26.5368H140.145C140.067 26.7244 139.943 26.8827 139.773 27.0116C139.607 27.1367 139.416 27.1992 139.202 27.1992C138.947 27.1992 138.725 27.123 138.536 26.9706C138.351 26.8182 138.259 26.6072 138.259 26.3375ZM138.642 26.3024C138.642 26.4509 138.697 26.5818 138.808 26.6951C138.919 26.8084 139.072 26.8651 139.268 26.8651C139.523 26.8651 139.729 26.7518 139.884 26.5251C140.043 26.2984 140.122 26.0444 140.122 25.7631V25.6282H139.962C139.843 25.6282 139.74 25.6302 139.651 25.6341C139.566 25.638 139.453 25.6536 139.313 25.681C139.176 25.7044 139.063 25.7377 138.974 25.7806C138.886 25.8236 138.808 25.8901 138.742 25.98C138.675 26.0698 138.642 26.1773 138.642 26.3024Z" fill="black"/>
<path d="M141.368 27.1289V24.1804H141.745V25.4407H143.376V24.1804H143.753V27.1289H143.376V25.7924H141.745V27.1289H141.368Z" fill="black"/>
<path d="M144.65 27.1289V24.1804H145.016V26.1148C145.016 26.3844 145.011 26.531 144.999 26.5544H145.011C145.025 26.5271 145.121 26.3805 145.299 26.1148L146.669 24.1804H147.029V27.1289H146.658V25.1886C146.658 25.1378 146.658 25.0792 146.658 25.0127C146.661 24.9463 146.665 24.8896 146.669 24.8428C146.672 24.792 146.674 24.7646 146.674 24.7607H146.663C146.663 24.7685 146.647 24.7959 146.613 24.8428C146.584 24.8896 146.543 24.9483 146.491 25.0186C146.443 25.089 146.406 25.1456 146.38 25.1886L145.011 27.1289H144.65Z" fill="black"/>
<path d="M147.644 27.1289L148.315 26.1148L148.442 25.9389V25.9272C148.265 25.8881 148.113 25.7943 147.988 25.6458C147.862 25.4934 147.799 25.3039 147.799 25.0772C147.799 24.788 147.888 24.5672 148.065 24.4148C148.246 24.2585 148.487 24.1804 148.786 24.1804H149.768V27.1289H149.391V25.9975H148.814L148.082 27.1289H147.644ZM148.831 25.6869H149.391V24.4852H148.858C148.411 24.4852 148.187 24.6825 148.187 25.0772C148.187 25.2687 148.246 25.4192 148.365 25.5286C148.487 25.6341 148.642 25.6869 148.831 25.6869Z" fill="black"/>
<path fill-rule="evenodd" clip-rule="evenodd" d="M18.0682 0C28.047 0 36.1364 8.08949 36.1364 18.0683C36.1364 28.0471 28.047 36.1364 18.0682 36.1364C8.08942 36.1364 0 28.0471 0 18.0683C0 8.08949 8.08942 0 18.0682 0Z" fill="#D31136"/>
<mask id="mask0" mask-type="alpha" maskUnits="userSpaceOnUse" x="0" y="0" width="37" height="37">
<path fill-rule="evenodd" clip-rule="evenodd" d="M18.0682 0C28.047 0 36.1364 8.08949 36.1364 18.0683C36.1364 28.0471 28.047 36.1364 18.0682 36.1364C8.08942 36.1364 0 28.0471 0 18.0683C0 8.08949 8.08942 0 18.0682 0Z" fill="white"/>
</mask>
<g mask="url(#mask0)">
<path fill-rule="evenodd" clip-rule="evenodd" d="M14.285 -1.69375L9.35547 27.2059H27.3223L28.3047 21.5548H16.9637L20.978 -3.53564L14.285 -1.69375Z" fill="white"/>
</g>
</svg>
