<svg width="339" height="242" viewBox="0 0 339 242" fill="none" xmlns="http://www.w3.org/2000/svg">
<path fill-rule="evenodd" clip-rule="evenodd" d="M17.8235 229.041H101.013C107.621 229.041 112.996 223.662 112.996 217.051V133.86C112.996 127.251 107.621 121.874 101.013 121.874H71.4986C72.039 121.874 72.4762 122.311 72.4762 122.851V123.829H70.5209V125.772H48.3153V123.829H46.36V122.851C46.36 122.311 46.7972 121.874 47.3377 121.874H17.8235C11.2128 121.874 5.83629 127.251 5.83629 133.86V217.051C5.83629 223.662 11.2128 229.041 17.8235 229.041ZM46.36 125.772V123.829H17.8235C12.2918 123.829 7.79124 128.329 7.79124 133.86V217.051C7.79124 222.584 12.2918 227.086 17.8235 227.086H101.013C106.542 227.086 111.041 222.584 111.041 217.051V133.86C111.041 128.329 106.542 123.829 101.013 123.829H72.4762V125.772H70.5209V127.728H48.3153V125.772H46.36ZM46.36 127.728H20.9085C15.8259 127.728 11.6902 131.863 11.6902 136.946V159.881C11.6902 160.422 11.2531 160.859 10.7126 160.859C10.1724 160.859 9.73528 160.422 9.73528 159.881V136.946C9.73528 130.785 14.747 125.772 20.9085 125.772H46.36V127.728ZM46.36 127.728V154.489C46.36 154.881 46.5933 155.232 46.952 155.386C47.0761 155.44 47.2081 155.467 47.3377 155.467C47.5822 155.467 47.8246 155.375 48.0098 155.199L50.0664 153.254L51.5422 155.1C51.7178 155.318 51.9773 155.452 52.258 155.465C52.5137 155.493 52.8097 155.369 53.0065 155.17L54.8509 153.274L56.3728 155.112C56.5484 155.325 56.8062 155.453 57.0811 155.465C57.3525 155.495 57.6236 155.375 57.8204 155.177L59.4316 153.549L61.1997 155.203C61.5796 155.556 62.1678 155.56 62.5439 155.195L64.5029 153.324L65.6409 155.031C65.8124 155.289 66.0954 155.449 66.4044 155.465C66.714 155.51 67.0117 155.35 67.2084 155.112L68.5486 153.488L70.9103 155.27C71.2046 155.493 71.6036 155.53 71.934 155.363C72.2662 155.199 72.4762 154.859 72.4762 154.489V127.728H97.9278C103.008 127.728 107.143 131.863 107.143 136.946V159.881C107.143 160.422 107.579 160.859 108.12 160.859C108.66 160.859 109.098 160.422 109.098 159.881V136.946C109.098 130.785 104.087 125.772 97.9278 125.772H72.4762V127.728H70.5209V152.526L68.9782 151.364C68.5619 151.05 67.9682 151.115 67.6361 151.522L66.5384 152.853L65.484 151.27C65.3237 151.029 65.0659 150.873 64.7778 150.84C64.5105 150.808 64.2049 150.903 63.9949 151.105L61.8602 153.145L60.0734 151.472C59.8841 151.296 59.6437 151.209 59.405 151.209C59.1527 151.209 58.9007 151.306 58.7097 151.499L57.1899 153.034L55.6625 151.19C55.4869 150.976 55.2271 150.846 54.9505 150.834C54.6794 150.834 54.4042 150.934 54.2095 151.131L52.3787 153.013L50.9311 151.201C50.7613 150.989 50.5073 150.856 50.2362 150.837C49.9651 150.827 49.6957 150.915 49.4955 151.102L48.3153 152.219V127.728H46.36ZM9.73528 172.498C9.73528 173.038 10.1724 173.475 10.7126 173.475C11.2531 173.475 11.6902 173.038 11.6902 172.498V167.453C11.6902 166.913 11.2531 166.476 10.7126 166.476C10.1724 166.476 9.73528 166.913 9.73528 167.453V172.498ZM10.7126 189.308C10.1724 189.308 9.73528 188.871 9.73528 188.33V180.529C9.73528 179.988 10.1724 179.551 10.7126 179.551C11.2531 179.551 11.6902 179.988 11.6902 180.529V188.33C11.6902 188.871 11.2531 189.308 10.7126 189.308ZM20.9085 225.139H37.5506C38.0908 225.139 38.5283 224.701 38.5283 224.161C38.5283 223.621 38.0908 223.184 37.5506 223.184H20.9085C15.8259 223.184 11.6902 219.047 11.6902 213.965V193.145C11.6902 192.605 11.2531 192.168 10.7126 192.168C10.1724 192.168 9.73528 192.605 9.73528 193.145V213.965C9.73528 220.127 14.747 225.139 20.9085 225.139ZM47.6432 225.139H43.0571C42.5166 225.139 42.0795 224.701 42.0795 224.161C42.0795 223.621 42.5166 223.184 43.0571 223.184H47.6432C48.1837 223.184 48.6209 223.621 48.6209 224.161C48.6209 224.701 48.1837 225.139 47.6432 225.139ZM51.3131 225.139H56.5904C57.1309 225.139 57.568 224.701 57.568 224.161C57.568 223.621 57.1309 223.184 56.5904 223.184H51.3131C50.7726 223.184 50.3354 223.621 50.3354 224.161C50.3354 224.701 50.7726 225.139 51.3131 225.139ZM64.6209 225.139H60.4894C59.9489 225.139 59.5117 224.701 59.5117 224.161C59.5117 223.621 59.9489 223.184 60.4894 223.184H64.6209C65.1614 223.184 65.5986 223.621 65.5986 224.161C65.5986 224.701 65.1614 225.139 64.6209 225.139ZM68.9782 225.139H97.9278C104.087 225.139 109.098 220.127 109.098 213.965V182.136C109.098 181.596 108.66 181.159 108.12 181.159C107.579 181.159 107.143 181.596 107.143 182.136V213.965C107.143 219.047 103.008 223.184 97.9278 223.184H68.9782C68.4378 223.184 68.0006 223.621 68.0006 224.161C68.0006 224.701 68.4378 225.139 68.9782 225.139ZM108.12 173.475C107.579 173.475 107.143 173.038 107.143 172.498V167.22C107.143 166.68 107.579 166.243 108.12 166.243C108.66 166.243 109.098 166.68 109.098 167.22V172.498C109.098 173.038 108.66 173.475 108.12 173.475ZM96.6142 220.762H86.2959C85.7554 220.762 85.3186 220.325 85.3186 219.785V209.463C85.3186 208.923 85.7554 208.486 86.2959 208.486H96.6142C97.1547 208.486 97.5919 208.923 97.5919 209.463V219.785C97.5919 220.325 97.1547 220.762 96.6142 220.762ZM87.2736 218.807H95.6366V210.441H87.2736V218.807ZM81.8169 220.762H71.4986C70.9581 220.762 70.5209 220.325 70.5209 219.785V209.463C70.5209 208.923 70.9581 208.486 71.4986 208.486H81.8169C82.357 208.486 82.7942 208.923 82.7942 209.463V219.785C82.7942 220.325 82.357 220.762 81.8169 220.762ZM72.4762 218.807H80.8392V210.441H72.4762V218.807ZM210.197 229.041H127.007C120.397 229.041 115.02 223.662 115.02 217.051V133.86C115.02 127.251 120.397 121.874 127.007 121.874H156.522C155.981 121.874 155.544 122.311 155.544 122.851V123.829H127.007C121.476 123.829 116.975 128.329 116.975 133.86V217.051C116.975 222.584 121.476 227.086 127.007 227.086H210.197C215.729 227.086 220.229 222.584 220.229 217.051V133.86C220.229 128.329 215.729 123.829 210.197 123.829H181.66V122.851C181.66 122.311 181.223 121.874 180.683 121.874H210.197C216.807 121.874 222.184 127.251 222.184 133.86V217.051C222.184 223.662 216.807 229.041 210.197 229.041ZM181.66 125.772V123.829H179.705V125.772H157.499V123.829H155.544V125.772H130.093C123.931 125.772 118.919 130.785 118.919 136.946V159.881C118.919 160.422 119.356 160.859 119.897 160.859C120.437 160.859 120.874 160.422 120.874 159.881V136.946C120.874 131.863 125.01 127.728 130.093 127.728H155.544V154.489C155.544 154.881 155.777 155.232 156.136 155.386C156.497 155.541 156.909 155.47 157.194 155.199L159.252 153.252L160.73 155.1C160.906 155.32 161.167 155.452 161.446 155.465C161.755 155.493 162 155.369 162.194 155.17L164.035 153.274L165.557 155.112C165.733 155.325 165.99 155.453 166.265 155.465C166.54 155.495 166.809 155.375 167.004 155.178L168.618 153.549L170.38 155.201C170.756 155.558 171.346 155.558 171.722 155.197L173.688 153.324L174.825 155.03C174.994 155.287 175.279 155.449 175.588 155.465C175.604 155.467 175.621 155.467 175.638 155.467C175.928 155.467 176.205 155.337 176.392 155.112L177.733 153.488L180.094 155.27C180.388 155.493 180.786 155.53 181.118 155.363C181.45 155.199 181.66 154.859 181.66 154.489V127.728H207.116C212.196 127.728 216.33 131.863 216.33 136.946V159.881C216.33 160.422 216.767 160.859 217.307 160.859C217.848 160.859 218.285 160.422 218.285 159.881V136.946C218.285 130.785 213.275 125.772 207.116 125.772H181.66ZM179.705 127.728V152.526L178.162 151.364C177.744 151.05 177.152 151.115 176.82 151.522L175.722 152.851L174.672 151.272C174.514 151.031 174.254 150.873 173.967 150.84C173.675 150.808 173.394 150.907 173.184 151.104L171.042 153.145L169.261 151.474C169.074 151.296 168.833 151.209 168.593 151.209C168.341 151.209 168.089 151.306 167.898 151.497L166.374 153.034L164.846 151.19C164.671 150.976 164.411 150.846 164.133 150.834C163.918 150.834 163.586 150.934 163.393 151.131L161.564 153.013L160.115 151.201C159.943 150.987 159.691 150.856 159.418 150.837C159.185 150.827 158.88 150.915 158.679 151.102L157.499 152.219V127.728H179.705ZM179.705 127.728H181.66V125.772H179.705V127.728ZM157.499 127.728H155.544V125.772H157.499V127.728ZM119.897 173.475C119.356 173.475 118.919 173.038 118.919 172.498V167.453C118.919 166.913 119.356 166.476 119.897 166.476C120.437 166.476 120.874 166.913 120.874 167.453V172.498C120.874 173.038 120.437 173.475 119.897 173.475ZM118.919 188.33C118.919 188.871 119.356 189.308 119.897 189.308C120.437 189.308 120.874 188.871 120.874 188.33V180.529C120.874 179.988 120.437 179.551 119.897 179.551C119.356 179.551 118.919 179.988 118.919 180.529V188.33ZM146.734 225.139H130.093C123.931 225.139 118.919 220.127 118.919 213.965V193.145C118.919 192.605 119.356 192.168 119.897 192.168C120.437 192.168 120.874 192.605 120.874 193.145V213.965C120.874 219.047 125.01 223.184 130.093 223.184H146.734C147.275 223.184 147.712 223.621 147.712 224.161C147.712 224.701 147.275 225.139 146.734 225.139ZM152.241 225.139H156.827C157.367 225.139 157.805 224.701 157.805 224.161C157.805 223.621 157.367 223.184 156.827 223.184H152.241C151.701 223.184 151.264 223.621 151.264 224.161C151.264 224.701 151.701 225.139 152.241 225.139ZM165.775 225.139H160.497C159.957 225.139 159.52 224.701 159.52 224.161C159.52 223.621 159.957 223.184 160.497 223.184H165.775C166.315 223.184 166.752 223.621 166.752 224.161C166.752 224.701 166.315 225.139 165.775 225.139ZM169.673 225.139H173.801C174.341 225.139 174.779 224.701 174.779 224.161C174.779 223.621 174.341 223.184 173.801 223.184H169.673C169.133 223.184 168.696 223.621 168.696 224.161C168.696 224.701 169.133 225.139 169.673 225.139ZM207.116 225.139H178.162C177.622 225.139 177.185 224.701 177.185 224.161C177.185 223.621 177.622 223.184 178.162 223.184H207.116C212.196 223.184 216.33 219.047 216.33 213.965V182.136C216.33 181.596 216.767 181.159 217.307 181.159C217.848 181.159 218.285 181.596 218.285 182.136V213.965C218.285 220.127 213.275 225.139 207.116 225.139ZM216.33 172.498C216.33 173.038 216.767 173.475 217.307 173.475C217.848 173.475 218.285 173.038 218.285 172.498V167.22C218.285 166.68 217.848 166.243 217.307 166.243C216.767 166.243 216.33 166.68 216.33 167.22V172.498ZM195.48 220.762H205.802C206.342 220.762 206.779 220.325 206.779 219.785V209.463C206.779 208.923 206.342 208.486 205.802 208.486H195.48C194.94 208.486 194.502 208.923 194.502 209.463V219.785C194.502 220.325 194.94 220.762 195.48 220.762ZM204.824 218.807H196.458V210.441H204.824V218.807ZM180.683 220.762H191.008C191.549 220.762 191.986 220.325 191.986 219.785V209.463C191.986 208.923 191.549 208.486 191.008 208.486H180.683C180.142 208.486 179.705 208.923 179.705 209.463V219.785C179.705 220.325 180.142 220.762 180.683 220.762ZM190.031 218.807H181.66V210.441H190.031V218.807ZM69.589 107.619H152.776C159.388 107.619 164.766 102.24 164.766 95.6276V12.4415C164.766 5.8315 159.388 0.454712 152.776 0.454712H123.265C123.805 0.454712 124.242 0.89196 124.242 1.43242V2.40988H122.287V4.35334H100.078V2.40988H98.1225V1.43242C98.1225 0.89196 98.5596 0.454712 99.1001 0.454712H69.589C62.977 0.454712 57.5984 5.8315 57.5984 12.4415V95.6276C57.5984 102.24 62.977 107.619 69.589 107.619ZM98.1225 4.35334H72.6747C66.5131 4.35334 61.5015 9.36193 61.5015 15.5193V38.4619C61.5015 39.0026 61.9386 39.4398 62.4788 39.4398C63.0193 39.4398 63.4564 39.0026 63.4564 38.4619V15.5193C63.4564 10.4404 67.5921 6.30852 72.6747 6.30852H98.1225V33.0663C98.1225 33.4555 98.3554 33.809 98.7124 33.9637C98.8386 34.0172 98.9702 34.0438 99.1001 34.0438C99.3446 34.0438 99.5867 33.9523 99.7722 33.7766L101.831 31.8329L103.308 33.6773C103.484 33.8969 103.746 34.0284 104.024 34.0418C104.33 34.0572 104.576 33.9483 104.773 33.748L106.615 31.8539L108.139 33.6907C108.315 33.9025 108.572 34.0306 108.847 34.0438C109.145 34.0381 109.39 33.9523 109.587 33.7556L111.198 32.1288L112.962 33.7802C113.344 34.1357 113.93 34.1335 114.304 33.7749L116.269 31.9031L117.403 33.6085C117.575 33.8664 117.858 34.0267 118.167 34.0418C118.461 34.086 118.772 33.9291 118.971 33.6887L120.311 32.0659L122.677 33.8473C122.973 34.0725 123.37 34.1048 123.7 33.9405C124.032 33.7766 124.242 33.4367 124.242 33.0663V6.30852H149.694C154.775 6.30852 158.908 10.4404 158.908 15.5193V38.4619C158.908 39.0026 159.346 39.4398 159.886 39.4398C160.426 39.4398 160.863 39.0026 160.863 38.4619V15.5193C160.863 9.36193 155.853 4.35334 149.694 4.35334H124.242V2.40988H152.776C158.309 2.40988 162.811 6.90973 162.811 12.4415V95.6276C162.811 101.161 158.309 105.663 152.776 105.663H69.589C64.0559 105.663 59.5537 101.161 59.5537 95.6276V12.4415C59.5537 6.90973 64.0559 2.40988 69.589 2.40988H98.1225V4.35334ZM122.287 6.30852V31.1053L120.741 29.9406C120.325 29.6254 119.731 29.6923 119.398 30.099L118.3 31.4283L117.25 29.8506C117.09 29.61 116.832 29.4536 116.546 29.4212C116.259 29.389 115.973 29.4841 115.763 29.6847L113.625 31.7223L111.839 30.0531C111.65 29.8775 111.41 29.7896 111.171 29.7896C110.919 29.7896 110.667 29.887 110.476 30.0783L108.956 31.613L107.425 29.7689C107.247 29.5551 106.987 29.4268 106.711 29.4153C106.451 29.4136 106.166 29.5146 105.972 29.7115L104.143 31.5923L102.694 29.7823C102.521 29.5681 102.27 29.4365 101.997 29.4175C101.75 29.408 101.458 29.4956 101.258 29.683L100.078 30.7978V6.30852H122.287ZM122.287 6.30852H124.242V4.35334H122.287V6.30852ZM98.1225 4.35334H100.078V6.30852H98.1225V4.35334ZM61.5015 51.0791C61.5015 51.6191 61.9386 52.0568 62.4788 52.0568C63.0193 52.0568 63.4564 51.6191 63.4564 51.0791V46.0344C63.4564 45.4939 63.0193 45.0569 62.4788 45.0569C61.9386 45.0569 61.5015 45.4939 61.5015 46.0344V51.0791ZM62.4788 67.8848C61.9386 67.8848 61.5015 67.4478 61.5015 66.9076V59.1099C61.5015 58.5694 61.9386 58.1322 62.4788 58.1322C63.0193 58.1322 63.4564 58.5694 63.4564 59.1099V66.9076C63.4564 67.4478 63.0193 67.8848 62.4788 67.8848ZM72.6747 103.72H89.3168C89.857 103.72 90.2945 103.283 90.2945 102.742C90.2945 102.202 89.857 101.764 89.3168 101.764H72.6747C67.5921 101.764 63.4564 97.6289 63.4564 92.5462V71.723C63.4564 71.1825 63.0193 70.7453 62.4788 70.7453C61.9386 70.7453 61.5015 71.1825 61.5015 71.723V92.5462C61.5015 98.7077 66.5131 103.72 72.6747 103.72ZM99.4094 103.72H94.8195C94.2791 103.72 93.8419 103.283 93.8419 102.742C93.8419 102.202 94.2791 101.764 94.8195 101.764H99.4094C99.9499 101.764 100.387 102.202 100.387 102.742C100.387 103.283 99.9499 103.72 99.4094 103.72ZM103.079 103.72H108.353C108.893 103.72 109.33 103.283 109.33 102.742C109.33 102.202 108.893 101.764 108.353 101.764H103.079C102.539 101.764 102.102 102.202 102.102 102.742C102.102 103.283 102.539 103.72 103.079 103.72ZM116.383 103.72H112.251C111.711 103.72 111.274 103.283 111.274 102.742C111.274 102.202 111.711 101.764 112.251 101.764H116.383C116.924 101.764 117.361 102.202 117.361 102.742C117.361 103.283 116.924 103.72 116.383 103.72ZM120.741 103.72H149.694C155.853 103.72 160.863 98.7077 160.863 92.5462V60.7132C160.863 60.173 160.426 59.736 159.886 59.736C159.346 59.736 158.908 60.173 158.908 60.7132V92.5462C158.908 97.6289 154.775 101.764 149.694 101.764H120.741C120.2 101.764 119.763 102.202 119.763 102.742C119.763 103.283 120.2 103.72 120.741 103.72ZM159.886 52.0568C159.346 52.0568 158.908 51.6191 158.908 51.0791V45.8053C158.908 45.2648 159.346 44.8278 159.886 44.8278C160.426 44.8278 160.863 45.2648 160.863 45.8053V51.0791C160.863 51.6191 160.426 52.0568 159.886 52.0568ZM148.384 99.3396H138.058C137.518 99.3396 137.081 98.9024 137.081 98.3622V88.0475C137.081 87.5073 137.518 87.0703 138.058 87.0703H148.384C148.924 87.0703 149.361 87.5073 149.361 88.0475V98.3622C149.361 98.9024 148.924 99.3396 148.384 99.3396ZM139.036 97.3847H147.406V89.0255H139.036V97.3847ZM133.587 99.3396H123.265C122.724 99.3396 122.287 98.9024 122.287 98.3622V88.0475C122.287 87.5073 122.724 87.0703 123.265 87.0703H133.587C134.127 87.0703 134.564 87.5073 134.564 88.0475V98.3622C134.564 98.9024 134.127 99.3396 133.587 99.3396ZM124.242 97.3847H132.609V89.0255H124.242V97.3847ZM261.96 107.619H178.773C172.161 107.619 166.783 102.24 166.783 95.6276V12.4415C166.783 5.8315 172.161 0.454712 178.773 0.454712H208.288C207.748 0.454712 207.31 0.89196 207.31 1.43242V2.40988H178.773C173.24 2.40988 168.737 6.90973 168.737 12.4415V95.6276C168.737 101.161 173.24 105.663 178.773 105.663H261.96C267.493 105.663 271.995 101.161 271.995 95.6276V12.4415C271.995 6.90973 267.493 2.40988 261.96 2.40988H233.426V1.43242C233.426 0.89196 232.989 0.454712 232.449 0.454712H261.96C268.572 0.454712 273.95 5.8315 273.95 12.4415V95.6276C273.95 102.24 268.572 107.619 261.96 107.619ZM233.426 4.35334V2.40988H231.471V4.35334H209.266V2.40988H207.31V4.35334H181.859C175.697 4.35334 170.685 9.36193 170.685 15.5193V38.4619C170.685 39.0026 171.122 39.4398 171.663 39.4398C172.203 39.4398 172.641 39.0026 172.641 38.4619V15.5193C172.641 10.4404 176.776 6.30852 181.859 6.30852H207.31V33.0663C207.31 33.4577 207.543 33.809 207.902 33.9637C208.026 34.0172 208.158 34.0438 208.288 34.0438C208.532 34.0438 208.775 33.9523 208.96 33.7766L211.014 31.8329L212.492 33.6773C212.668 33.8969 212.929 34.0284 213.208 34.0418C213.501 34.0572 213.76 33.9483 213.957 33.748L215.799 31.8539L217.323 33.6907C217.498 33.9025 217.757 34.0306 218.031 34.0418C218.298 34.0725 218.573 33.9523 218.768 33.7556L220.383 32.1308L222.142 33.7785C222.52 34.137 223.11 34.1335 223.484 33.7749L225.451 31.9031L226.587 33.6085C226.759 33.8664 227.042 34.0267 227.351 34.0418C227.624 34.086 227.956 33.9291 228.154 33.6887L229.495 32.0659L231.861 33.8473C232.157 34.0725 232.554 34.1048 232.884 33.9405C233.216 33.7766 233.426 33.4367 233.426 33.0663V6.30852H258.881C263.963 6.30852 268.096 10.4404 268.096 15.5193V38.4619C268.096 39.0026 268.533 39.4398 269.074 39.4398C269.614 39.4398 270.051 39.0026 270.051 38.4619V15.5193C270.051 9.36193 265.041 4.35334 258.881 4.35334H233.426ZM231.471 6.30852V4.35334H233.426V6.30852H231.471ZM209.266 6.30852V4.35334H207.31V6.30852H209.266ZM209.266 6.30852V30.7956L210.442 29.683C210.642 29.4956 210.925 29.408 211.18 29.4175C211.454 29.4365 211.706 29.5681 211.877 29.7823L213.326 31.5923L215.156 29.7115C215.352 29.5146 215.65 29.4136 215.895 29.4153C216.172 29.4268 216.431 29.5551 216.609 29.7689L218.14 31.613L219.665 30.0783C219.857 29.887 220.107 29.7896 220.359 29.7896C220.599 29.7896 220.84 29.8775 221.027 30.0551L222.807 31.7223L224.947 29.6847C225.157 29.4841 225.439 29.389 225.73 29.4212C226.016 29.4536 226.274 29.61 226.434 29.8506L227.485 31.4283L228.582 30.099C228.915 29.6923 229.508 29.6254 229.924 29.9406L231.471 31.1053V6.30852H209.266ZM171.663 52.0568C171.122 52.0568 170.685 51.6191 170.685 51.0791V46.0344C170.685 45.4939 171.122 45.0569 171.663 45.0569C172.203 45.0569 172.641 45.4939 172.641 46.0344V51.0791C172.641 51.6191 172.203 52.0568 171.663 52.0568ZM170.685 66.9076C170.685 67.4478 171.122 67.8848 171.663 67.8848C172.203 67.8848 172.641 67.4478 172.641 66.9076V59.1099C172.641 58.5694 172.203 58.1322 171.663 58.1322C171.122 58.1322 170.685 58.5694 170.685 59.1099V66.9076ZM198.5 103.72H181.859C175.697 103.72 170.685 98.7077 170.685 92.5462V71.723C170.685 71.1825 171.122 70.7453 171.663 70.7453C172.203 70.7453 172.641 71.1825 172.641 71.723V92.5462C172.641 97.6289 176.776 101.764 181.859 101.764H198.5C199.041 101.764 199.478 102.202 199.478 102.742C199.478 103.283 199.041 103.72 198.5 103.72ZM204.003 103.72H208.593C209.134 103.72 209.571 103.283 209.571 102.742C209.571 102.202 209.134 101.764 208.593 101.764H204.003C203.463 101.764 203.026 102.202 203.026 102.742C203.026 103.283 203.463 103.72 204.003 103.72ZM217.541 103.72H212.263C211.723 103.72 211.286 103.283 211.286 102.742C211.286 102.202 211.723 101.764 212.263 101.764H217.541C218.081 101.764 218.518 102.202 218.518 102.742C218.518 103.283 218.081 103.72 217.541 103.72ZM221.44 103.72H225.567C226.108 103.72 226.545 103.283 226.545 102.742C226.545 102.202 226.108 101.764 225.567 101.764H221.44C220.899 101.764 220.462 102.202 220.462 102.742C220.462 103.283 220.899 103.72 221.44 103.72ZM258.881 103.72H229.924C229.384 103.72 228.947 103.283 228.947 102.742C228.947 102.202 229.384 101.764 229.924 101.764H258.881C263.963 101.764 268.096 97.6289 268.096 92.5462V60.7132C268.096 60.173 268.533 59.736 269.074 59.736C269.614 59.736 270.051 60.173 270.051 60.7132V92.5462C270.051 98.7077 265.041 103.72 258.881 103.72ZM268.096 51.0791C268.096 51.6191 268.533 52.0568 269.074 52.0568C269.614 52.0568 270.051 51.6191 270.051 51.0791V45.8053C270.051 45.2648 269.614 44.8278 269.074 44.8278C268.533 44.8278 268.096 45.2648 268.096 45.8053V51.0791ZM247.246 99.3396H257.564C258.104 99.3396 258.541 98.9024 258.541 98.3622V88.0475C258.541 87.5073 258.104 87.0703 257.564 87.0703H247.246C246.706 87.0703 246.269 87.5073 246.269 88.0475V98.3622C246.269 98.9024 246.706 99.3396 247.246 99.3396ZM256.587 97.3847H248.224V89.0255H256.587V97.3847ZM232.449 99.3396H242.774C243.315 99.3396 243.752 98.9024 243.752 98.3622V88.0475C243.752 87.5073 243.315 87.0703 242.774 87.0703H232.449C231.908 87.0703 231.471 87.5073 231.471 88.0475V98.3622C231.471 98.9024 231.908 99.3396 232.449 99.3396ZM241.797 97.3847H233.426V89.0255H241.797V97.3847ZM237.069 229.041H320.259C326.87 229.041 332.246 223.662 332.246 217.051V133.86C332.246 127.251 326.87 121.874 320.259 121.874H237.069C230.459 121.874 225.083 127.251 225.083 133.86V217.051C225.083 223.662 230.459 229.041 237.069 229.041ZM227.038 133.86C227.038 128.329 231.538 123.829 237.069 123.829H320.259C325.791 123.829 330.291 128.329 330.291 133.86V217.051C330.291 222.584 325.791 227.086 320.259 227.086H237.069C231.538 227.086 227.038 222.584 227.038 217.051V133.86ZM228.985 172.498C228.985 173.038 229.422 173.475 229.963 173.475C230.503 173.475 230.94 173.038 230.94 172.498V167.453C230.94 166.913 230.503 166.476 229.963 166.476C229.422 166.476 228.985 166.913 228.985 167.453V172.498ZM229.963 189.308C229.422 189.308 228.985 188.871 228.985 188.33V180.529C228.985 179.988 229.422 179.551 229.963 179.551C230.503 179.551 230.94 179.988 230.94 180.529V188.33C230.94 188.871 230.503 189.308 229.963 189.308ZM240.155 225.139H256.796C257.337 225.139 257.774 224.701 257.774 224.161C257.774 223.621 257.337 223.184 256.796 223.184H240.155C235.074 223.184 230.94 219.047 230.94 213.965V193.145C230.94 192.605 230.503 192.168 229.963 192.168C229.422 192.168 228.985 192.605 228.985 193.145V213.965C228.985 220.127 233.995 225.139 240.155 225.139ZM266.893 225.139H262.303C261.763 225.139 261.325 224.701 261.325 224.161C261.325 223.621 261.763 223.184 262.303 223.184H266.893C267.434 223.184 267.871 223.621 267.871 224.161C267.871 224.701 267.434 225.139 266.893 225.139ZM270.559 225.139H275.837C276.377 225.139 276.814 224.701 276.814 224.161C276.814 223.621 276.377 223.184 275.837 223.184H270.559C270.019 223.184 269.582 223.621 269.582 224.161C269.582 224.701 270.019 225.139 270.559 225.139ZM283.863 225.139H279.736C279.195 225.139 278.758 224.701 278.758 224.161C278.758 223.621 279.195 223.184 279.736 223.184H283.863C284.404 223.184 284.841 223.621 284.841 224.161C284.841 224.701 284.404 225.139 283.863 225.139ZM288.225 225.139H317.178C323.339 225.139 328.351 220.127 328.351 213.965V182.136C328.351 181.596 327.914 181.159 327.374 181.159C326.833 181.159 326.396 181.596 326.396 182.136V213.965C326.396 219.047 322.26 223.184 317.178 223.184H288.225C287.684 223.184 287.247 223.621 287.247 224.161C287.247 224.701 287.684 225.139 288.225 225.139ZM327.374 173.475C326.833 173.475 326.396 173.038 326.396 172.498V167.22C326.396 166.68 326.833 166.243 327.374 166.243C327.914 166.243 328.351 166.68 328.351 167.22V172.498C328.351 173.038 327.914 173.475 327.374 173.475ZM326.396 159.881C326.396 160.422 326.833 160.859 327.374 160.859C327.914 160.859 328.351 160.422 328.351 159.881V136.946C328.351 130.785 323.339 125.772 317.178 125.772H240.155C233.995 125.772 228.985 130.785 228.985 136.946V159.881C228.985 160.422 229.422 160.859 229.963 160.859C230.503 160.859 230.94 160.422 230.94 159.881V136.946C230.94 131.863 235.074 127.728 240.155 127.728H317.178C322.26 127.728 326.396 131.863 326.396 136.946V159.881ZM285.7 155.467C285.683 155.467 285.666 155.467 285.651 155.465C285.341 155.449 285.057 155.287 284.887 155.03L283.753 153.324L281.788 155.197C281.415 155.558 280.826 155.556 280.446 155.203L278.68 153.549L277.066 155.178C276.871 155.375 276.621 155.495 276.327 155.465C276.053 155.453 275.794 155.325 275.619 155.112L274.097 153.274L272.257 155.17C272.062 155.369 271.797 155.493 271.508 155.465C271.229 155.452 270.968 155.32 270.792 155.1L269.314 153.252L267.256 155.199C266.975 155.47 266.561 155.541 266.198 155.386C265.839 155.232 265.606 154.881 265.606 154.489V122.851C265.606 122.311 266.044 121.874 266.584 121.874H290.745C291.285 121.874 291.723 122.311 291.723 122.851V154.489C291.723 154.859 291.512 155.199 291.18 155.363C290.848 155.53 290.451 155.493 290.157 155.27L287.795 153.488L286.454 155.112C286.268 155.337 285.991 155.467 285.7 155.467ZM278.655 151.209C278.895 151.209 279.134 151.296 279.323 151.472L281.108 153.145L283.247 151.104C283.455 150.907 283.743 150.808 284.03 150.84C284.316 150.873 284.575 151.029 284.734 151.272L285.784 152.851L286.882 151.522C287.214 151.115 287.806 151.05 288.225 151.364L289.767 152.526V123.829H267.562V152.219L268.741 151.102C268.942 150.915 269.24 150.827 269.48 150.837C269.753 150.856 270.006 150.987 270.177 151.201L271.626 153.013L273.455 151.131C273.648 150.934 273.988 150.834 274.195 150.834C274.473 150.846 274.733 150.976 274.909 151.19L276.436 153.034L277.96 151.497C278.151 151.306 278.403 151.209 278.655 151.209ZM315.864 220.762H305.546C305.006 220.762 304.568 220.325 304.568 219.785V209.463C304.568 208.923 305.006 208.486 305.546 208.486H315.864C316.404 208.486 316.842 208.923 316.842 209.463V219.785C316.842 220.325 316.404 220.762 315.864 220.762ZM306.523 218.807H314.886V210.441H306.523V218.807ZM301.067 220.762H290.745C290.204 220.762 289.767 220.325 289.767 219.785V209.463C289.767 208.923 290.204 208.486 290.745 208.486H301.067C301.607 208.486 302.044 208.923 302.044 209.463V219.785C302.044 220.325 301.607 220.762 301.067 220.762ZM291.723 218.807H300.089V210.441H291.723V218.807ZM338.016 241.505H1.11241C0.572269 241.505 0.134766 241.068 0.134766 240.528V228.064C0.134766 227.523 0.572269 227.086 1.11241 227.086H338.016C338.556 227.086 338.994 227.523 338.994 228.064V240.528C338.994 241.068 338.556 241.505 338.016 241.505ZM2.09006 239.55H337.039V229.041H2.09006V239.55ZM338.016 120.083H1.11241C0.572269 120.083 0.134766 119.645 0.134766 119.105V106.641C0.134766 106.101 0.572269 105.663 1.11241 105.663H338.016C338.556 105.663 338.994 106.101 338.994 106.641V119.105C338.994 119.645 338.556 120.083 338.016 120.083ZM2.09006 118.127H337.039V107.619H2.09006V118.127Z" fill="#D31136"/>
</svg>
